<svg width="17" height="17" viewBox="0 0 17 17" fill="none" xmlns="http://www.w3.org/2000/svg">
<path d="M12.9246 11.2455C12.3692 10.6972 11.6758 10.6972 11.124 11.2455C10.703 11.6629 10.282 12.0804 9.86815 12.5049C9.75495 12.6216 9.65943 12.6464 9.52147 12.5685C9.24908 12.42 8.959 12.2997 8.69722 12.137C7.47677 11.3693 6.45442 10.3823 5.54881 9.27156C5.09955 8.7197 4.6998 8.12893 4.42034 7.46388C4.36374 7.32945 4.37435 7.24101 4.48401 7.13135C4.90498 6.72453 5.31534 6.3071 5.72923 5.88967C6.30585 5.30951 6.30585 4.63031 5.72569 4.04661C5.3967 3.71408 5.06771 3.38863 4.73872 3.0561C4.39911 2.7165 4.06305 2.37336 3.71991 2.03729C3.16451 1.49605 2.47115 1.49605 1.9193 2.04083C1.49479 2.45826 1.08798 2.8863 0.656396 3.29665C0.256654 3.67517 0.0550145 4.13859 0.0125641 4.67983C-0.0546492 5.56068 0.161141 6.392 0.465369 7.2021C1.08798 8.87889 2.03604 10.3682 3.18574 11.7337C4.73872 13.5803 6.59239 15.0413 8.7609 16.0955C9.73726 16.5695 10.749 16.9339 11.8492 16.994C12.6062 17.0365 13.2642 16.8454 13.7913 16.2547C14.1521 15.8514 14.5589 15.4835 14.941 15.0979C15.507 14.5248 15.5105 13.8314 14.9481 13.2654C14.2759 12.5898 13.6003 11.9176 12.9246 11.2455Z" fill="url(#paint0_linear)"/>
<path d="M12.249 8.42644L13.5544 8.20358C13.3492 7.00435 12.7832 5.91832 11.9235 5.05516C11.0144 4.14602 9.8647 3.57293 8.59826 3.39606L8.41431 4.70849C9.39421 4.84645 10.2857 5.28864 10.9896 5.99261C11.6547 6.65767 12.0898 7.4996 12.249 8.42644Z" fill="url(#paint1_linear)"/>
<path d="M14.2902 2.75221C12.7832 1.24521 10.8764 0.293616 8.7716 0L8.58765 1.31243C10.4059 1.56713 12.0544 2.39138 13.3562 3.68965C14.5908 4.92426 15.4009 6.48431 15.6946 8.20002L16.9999 7.97715C16.6568 5.98905 15.7193 4.18491 14.2902 2.75221Z" fill="url(#paint2_linear)"/>
<defs>
<linearGradient id="paint0_linear" x1="7.68398" y1="1.6318" x2="7.68398" y2="16.9997" gradientUnits="userSpaceOnUse">
<stop stop-color="#00E0FF"/>
<stop offset="1" stop-color="#145073"/>
</linearGradient>
<linearGradient id="paint1_linear" x1="10.9843" y1="3.39606" x2="10.9843" y2="8.42644" gradientUnits="userSpaceOnUse">
<stop stop-color="#00E0FF"/>
<stop offset="1" stop-color="#145073"/>
</linearGradient>
<linearGradient id="paint2_linear" x1="12.7938" y1="0" x2="12.7938" y2="8.20002" gradientUnits="userSpaceOnUse">
<stop stop-color="#00E0FF"/>
<stop offset="1" stop-color="#145073"/>
</linearGradient>
</defs>
</svg>
