<svg width="222" height="232" viewBox="0 0 222 232" fill="none" xmlns="http://www.w3.org/2000/svg">
<g clip-path="url(#clip0)">
<path d="M1.88918 3.70891C2.91691 3.70891 3.75004 2.87864 3.75004 1.85446C3.75004 0.830268 2.91691 0 1.88918 0C0.861456 0 0.0283203 0.830268 0.0283203 1.85446C0.0283203 2.87864 0.861456 3.70891 1.88918 3.70891Z" fill="#777777" fill-opacity="0.1"/>
<path d="M13.355 3.70891C14.3827 3.70891 15.2159 2.87864 15.2159 1.85446C15.2159 0.830268 14.3827 0 13.355 0C12.3273 0 11.4941 0.830268 11.4941 1.85446C11.4941 2.87864 12.3273 3.70891 13.355 3.70891Z" fill="#777777" fill-opacity="0.1"/>
<path d="M24.822 3.70891C25.8498 3.70891 26.6829 2.87864 26.6829 1.85446C26.6829 0.830268 25.8498 0 24.822 0C23.7943 0 22.9612 0.830268 22.9612 1.85446C22.9612 2.87864 23.7943 3.70891 24.822 3.70891Z" fill="#777777" fill-opacity="0.1"/>
<path d="M36.2891 3.70891C37.3168 3.70891 38.1499 2.87864 38.1499 1.85446C38.1499 0.830268 37.3168 0 36.2891 0C35.2614 0 34.4282 0.830268 34.4282 1.85446C34.4282 2.87864 35.2614 3.70891 36.2891 3.70891Z" fill="#777777" fill-opacity="0.1"/>
<path d="M47.7564 3.70891C48.7841 3.70891 49.6172 2.87864 49.6172 1.85446C49.6172 0.830268 48.7841 0 47.7564 0C46.7286 0 45.8955 0.830268 45.8955 1.85446C45.8955 2.87864 46.7286 3.70891 47.7564 3.70891Z" fill="#777777" fill-opacity="0.1"/>
<path d="M59.2234 3.70891C60.2511 3.70891 61.0843 2.87864 61.0843 1.85446C61.0843 0.830268 60.2511 0 59.2234 0C58.1957 0 57.3625 0.830268 57.3625 1.85446C57.3625 2.87864 58.1957 3.70891 59.2234 3.70891Z" fill="#777777" fill-opacity="0.1"/>
<path d="M70.6907 3.70891C71.7184 3.70891 72.5516 2.87864 72.5516 1.85446C72.5516 0.830268 71.7184 0 70.6907 0C69.663 0 68.8298 0.830268 68.8298 1.85446C68.8298 2.87864 69.663 3.70891 70.6907 3.70891Z" fill="#777777" fill-opacity="0.1"/>
<path d="M82.1577 3.70891C83.1855 3.70891 84.0186 2.87864 84.0186 1.85446C84.0186 0.830268 83.1855 0 82.1577 0C81.13 0 80.2969 0.830268 80.2969 1.85446C80.2969 2.87864 81.13 3.70891 82.1577 3.70891Z" fill="#777777" fill-opacity="0.1"/>
<path d="M93.6248 3.70891C94.6525 3.70891 95.4856 2.87864 95.4856 1.85446C95.4856 0.830268 94.6525 0 93.6248 0C92.597 0 91.7639 0.830268 91.7639 1.85446C91.7639 2.87864 92.597 3.70891 93.6248 3.70891Z" fill="#777777" fill-opacity="0.1"/>
<path d="M105.092 3.70891C106.12 3.70891 106.953 2.87864 106.953 1.85446C106.953 0.830268 106.12 0 105.092 0C104.064 0 103.231 0.830268 103.231 1.85446C103.231 2.87864 104.064 3.70891 105.092 3.70891Z" fill="#777777" fill-opacity="0.1"/>
<path d="M116.559 3.70891C117.587 3.70891 118.42 2.87864 118.42 1.85446C118.42 0.830268 117.587 0 116.559 0C115.531 0 114.698 0.830268 114.698 1.85446C114.698 2.87864 115.531 3.70891 116.559 3.70891Z" fill="#777777" fill-opacity="0.1"/>
<path d="M128.026 3.70891C129.054 3.70891 129.887 2.87864 129.887 1.85446C129.887 0.830268 129.054 0 128.026 0C126.998 0 126.165 0.830268 126.165 1.85446C126.165 2.87864 126.998 3.70891 128.026 3.70891Z" fill="#777777" fill-opacity="0.1"/>
<path d="M139.493 3.70891C140.521 3.70891 141.354 2.87864 141.354 1.85446C141.354 0.830268 140.521 0 139.493 0C138.466 0 137.633 0.830268 137.633 1.85446C137.633 2.87864 138.466 3.70891 139.493 3.70891Z" fill="#777777" fill-opacity="0.1"/>
<path d="M150.96 3.70891C151.988 3.70891 152.821 2.87864 152.821 1.85446C152.821 0.830268 151.988 0 150.96 0C149.933 0 149.1 0.830268 149.1 1.85446C149.1 2.87864 149.933 3.70891 150.96 3.70891Z" fill="#777777" fill-opacity="0.1"/>
<path d="M162.428 3.70891C163.455 3.70891 164.288 2.87864 164.288 1.85446C164.288 0.830268 163.455 0 162.428 0C161.4 0 160.567 0.830268 160.567 1.85446C160.567 2.87864 161.4 3.70891 162.428 3.70891Z" fill="#777777" fill-opacity="0.1"/>
<path d="M173.895 3.70891C174.923 3.70891 175.756 2.87864 175.756 1.85446C175.756 0.830268 174.923 0 173.895 0C172.867 0 172.034 0.830268 172.034 1.85446C172.034 2.87864 172.867 3.70891 173.895 3.70891Z" fill="#777777" fill-opacity="0.1"/>
<path d="M185.362 3.70891C186.39 3.70891 187.223 2.87864 187.223 1.85446C187.223 0.830268 186.39 0 185.362 0C184.334 0 183.501 0.830268 183.501 1.85446C183.501 2.87864 184.334 3.70891 185.362 3.70891Z" fill="#777777" fill-opacity="0.1"/>
<path d="M196.829 3.70891C197.857 3.70891 198.69 2.87864 198.69 1.85446C198.69 0.830268 197.857 0 196.829 0C195.801 0 194.968 0.830268 194.968 1.85446C194.968 2.87864 195.801 3.70891 196.829 3.70891Z" fill="#777777" fill-opacity="0.1"/>
<path d="M208.296 3.70891C209.324 3.70891 210.157 2.87864 210.157 1.85446C210.157 0.830268 209.324 0 208.296 0C207.268 0 206.435 0.830268 206.435 1.85446C206.435 2.87864 207.268 3.70891 208.296 3.70891Z" fill="#777777" fill-opacity="0.1"/>
<path d="M219.763 3.70891C220.791 3.70891 221.624 2.87864 221.624 1.85446C221.624 0.830268 220.791 0 219.763 0C218.735 0 217.902 0.830268 217.902 1.85446C217.902 2.87864 218.735 3.70891 219.763 3.70891Z" fill="#777777" fill-opacity="0.1"/>
<path d="M1.88796 17.607C2.91568 17.607 3.74882 16.7767 3.74882 15.7526C3.74882 14.7284 2.91568 13.8981 1.88796 13.8981C0.860235 13.8981 0.0270996 14.7284 0.0270996 15.7526C0.0270996 16.7767 0.860235 17.607 1.88796 17.607Z" fill="#777777" fill-opacity="0.1"/>
<path d="M13.355 17.607C14.3827 17.607 15.2159 16.7767 15.2159 15.7526C15.2159 14.7284 14.3827 13.8981 13.355 13.8981C12.3273 13.8981 11.4941 14.7284 11.4941 15.7526C11.4941 16.7767 12.3273 17.607 13.355 17.607Z" fill="#777777" fill-opacity="0.1"/>
<path d="M24.8223 17.607C25.85 17.607 26.6831 16.7767 26.6831 15.7526C26.6831 14.7284 25.85 13.8981 24.8223 13.8981C23.7946 13.8981 22.9614 14.7284 22.9614 15.7526C22.9614 16.7767 23.7946 17.607 24.8223 17.607Z" fill="#777777" fill-opacity="0.1"/>
<path d="M36.2893 17.607C37.317 17.607 38.1502 16.7767 38.1502 15.7526C38.1502 14.7284 37.317 13.8981 36.2893 13.8981C35.2616 13.8981 34.4285 14.7284 34.4285 15.7526C34.4285 16.7767 35.2616 17.607 36.2893 17.607Z" fill="#777777" fill-opacity="0.1"/>
<path d="M47.7564 17.607C48.7841 17.607 49.6172 16.7767 49.6172 15.7526C49.6172 14.7284 48.7841 13.8981 47.7564 13.8981C46.7286 13.8981 45.8955 14.7284 45.8955 15.7526C45.8955 16.7767 46.7286 17.607 47.7564 17.607Z" fill="#777777" fill-opacity="0.1"/>
<path d="M59.2237 17.607C60.2514 17.607 61.0845 16.7767 61.0845 15.7526C61.0845 14.7284 60.2514 13.8981 59.2237 13.8981C58.1959 13.8981 57.3628 14.7284 57.3628 15.7526C57.3628 16.7767 58.1959 17.607 59.2237 17.607Z" fill="#777777" fill-opacity="0.1"/>
<path d="M70.6907 17.607C71.7184 17.607 72.5516 16.7767 72.5516 15.7526C72.5516 14.7284 71.7184 13.8981 70.6907 13.8981C69.663 13.8981 68.8298 14.7284 68.8298 15.7526C68.8298 16.7767 69.663 17.607 70.6907 17.607Z" fill="#777777" fill-opacity="0.1"/>
<path d="M82.1577 17.607C83.1855 17.607 84.0186 16.7767 84.0186 15.7526C84.0186 14.7284 83.1855 13.8981 82.1577 13.8981C81.13 13.8981 80.2969 14.7284 80.2969 15.7526C80.2969 16.7767 81.13 17.607 82.1577 17.607Z" fill="#777777" fill-opacity="0.1"/>
<path d="M93.625 17.607C94.6527 17.607 95.4859 16.7767 95.4859 15.7526C95.4859 14.7284 94.6527 13.8981 93.625 13.8981C92.5973 13.8981 91.7642 14.7284 91.7642 15.7526C91.7642 16.7767 92.5973 17.607 93.625 17.607Z" fill="#777777" fill-opacity="0.1"/>
<path d="M105.092 17.607C106.12 17.607 106.953 16.7767 106.953 15.7526C106.953 14.7284 106.12 13.8981 105.092 13.8981C104.064 13.8981 103.231 14.7284 103.231 15.7526C103.231 16.7767 104.064 17.607 105.092 17.607Z" fill="#777777" fill-opacity="0.1"/>
<path d="M116.559 17.607C117.587 17.607 118.42 16.7767 118.42 15.7526C118.42 14.7284 117.587 13.8981 116.559 13.8981C115.531 13.8981 114.698 14.7284 114.698 15.7526C114.698 16.7767 115.531 17.607 116.559 17.607Z" fill="#777777" fill-opacity="0.1"/>
<path d="M128.026 17.607C129.054 17.607 129.887 16.7767 129.887 15.7526C129.887 14.7284 129.054 13.8981 128.026 13.8981C126.999 13.8981 126.166 14.7284 126.166 15.7526C126.166 16.7767 126.999 17.607 128.026 17.607Z" fill="#777777" fill-opacity="0.1"/>
<path d="M139.493 17.607C140.521 17.607 141.354 16.7767 141.354 15.7526C141.354 14.7284 140.521 13.8981 139.493 13.8981C138.466 13.8981 137.633 14.7284 137.633 15.7526C137.633 16.7767 138.466 17.607 139.493 17.607Z" fill="#777777" fill-opacity="0.1"/>
<path d="M150.96 17.607C151.988 17.607 152.821 16.7767 152.821 15.7526C152.821 14.7284 151.988 13.8981 150.96 13.8981C149.933 13.8981 149.1 14.7284 149.1 15.7526C149.1 16.7767 149.933 17.607 150.96 17.607Z" fill="#777777" fill-opacity="0.1"/>
<path d="M162.428 17.607C163.455 17.607 164.289 16.7767 164.289 15.7526C164.289 14.7284 163.455 13.8981 162.428 13.8981C161.4 13.8981 160.567 14.7284 160.567 15.7526C160.567 16.7767 161.4 17.607 162.428 17.607Z" fill="#777777" fill-opacity="0.1"/>
<path d="M173.895 17.607C174.923 17.607 175.756 16.7767 175.756 15.7526C175.756 14.7284 174.923 13.8981 173.895 13.8981C172.867 13.8981 172.034 14.7284 172.034 15.7526C172.034 16.7767 172.867 17.607 173.895 17.607Z" fill="#777777" fill-opacity="0.1"/>
<path d="M185.362 17.607C186.39 17.607 187.223 16.7767 187.223 15.7526C187.223 14.7284 186.39 13.8981 185.362 13.8981C184.334 13.8981 183.501 14.7284 183.501 15.7526C183.501 16.7767 184.334 17.607 185.362 17.607Z" fill="#777777" fill-opacity="0.1"/>
<path d="M196.829 17.607C197.857 17.607 198.69 16.7767 198.69 15.7526C198.69 14.7284 197.857 13.8981 196.829 13.8981C195.801 13.8981 194.968 14.7284 194.968 15.7526C194.968 16.7767 195.801 17.607 196.829 17.607Z" fill="#777777" fill-opacity="0.1"/>
<path d="M208.296 17.607C209.324 17.607 210.157 16.7767 210.157 15.7526C210.157 14.7284 209.324 13.8981 208.296 13.8981C207.268 13.8981 206.435 14.7284 206.435 15.7526C206.435 16.7767 207.268 17.607 208.296 17.607Z" fill="#777777" fill-opacity="0.1"/>
<path d="M219.763 17.607C220.791 17.607 221.624 16.7767 221.624 15.7526C221.624 14.7284 220.791 13.8981 219.763 13.8981C218.735 13.8981 217.902 14.7284 217.902 15.7526C217.902 16.7767 218.735 17.607 219.763 17.607Z" fill="#777777" fill-opacity="0.1"/>
<path d="M1.88796 31.5051C2.91568 31.5051 3.74882 30.6748 3.74882 29.6506C3.74882 28.6265 2.91568 27.7962 1.88796 27.7962C0.860235 27.7962 0.0270996 28.6265 0.0270996 29.6506C0.0270996 30.6748 0.860235 31.5051 1.88796 31.5051Z" fill="#777777" fill-opacity="0.1"/>
<path d="M13.355 31.5051C14.3827 31.5051 15.2159 30.6748 15.2159 29.6506C15.2159 28.6265 14.3827 27.7962 13.355 27.7962C12.3273 27.7962 11.4941 28.6265 11.4941 29.6506C11.4941 30.6748 12.3273 31.5051 13.355 31.5051Z" fill="#777777" fill-opacity="0.1"/>
<path d="M24.8223 31.5051C25.85 31.5051 26.6831 30.6748 26.6831 29.6506C26.6831 28.6265 25.85 27.7962 24.8223 27.7962C23.7946 27.7962 22.9614 28.6265 22.9614 29.6506C22.9614 30.6748 23.7946 31.5051 24.8223 31.5051Z" fill="#777777" fill-opacity="0.1"/>
<path d="M36.2893 31.5051C37.317 31.5051 38.1502 30.6748 38.1502 29.6506C38.1502 28.6265 37.317 27.7962 36.2893 27.7962C35.2616 27.7962 34.4285 28.6265 34.4285 29.6506C34.4285 30.6748 35.2616 31.5051 36.2893 31.5051Z" fill="#777777" fill-opacity="0.1"/>
<path d="M47.7564 31.5051C48.7841 31.5051 49.6172 30.6748 49.6172 29.6506C49.6172 28.6265 48.7841 27.7962 47.7564 27.7962C46.7286 27.7962 45.8955 28.6265 45.8955 29.6506C45.8955 30.6748 46.7286 31.5051 47.7564 31.5051Z" fill="#777777" fill-opacity="0.1"/>
<path d="M59.2237 31.5051C60.2514 31.5051 61.0845 30.6748 61.0845 29.6506C61.0845 28.6265 60.2514 27.7962 59.2237 27.7962C58.1959 27.7962 57.3628 28.6265 57.3628 29.6506C57.3628 30.6748 58.1959 31.5051 59.2237 31.5051Z" fill="#777777" fill-opacity="0.1"/>
<path d="M70.6907 31.5051C71.7184 31.5051 72.5516 30.6748 72.5516 29.6506C72.5516 28.6265 71.7184 27.7962 70.6907 27.7962C69.663 27.7962 68.8298 28.6265 68.8298 29.6506C68.8298 30.6748 69.663 31.5051 70.6907 31.5051Z" fill="#777777" fill-opacity="0.1"/>
<path d="M82.1577 31.5051C83.1855 31.5051 84.0186 30.6748 84.0186 29.6506C84.0186 28.6265 83.1855 27.7962 82.1577 27.7962C81.13 27.7962 80.2969 28.6265 80.2969 29.6506C80.2969 30.6748 81.13 31.5051 82.1577 31.5051Z" fill="#777777" fill-opacity="0.1"/>
<path d="M93.625 31.5051C94.6527 31.5051 95.4859 30.6748 95.4859 29.6506C95.4859 28.6265 94.6527 27.7962 93.625 27.7962C92.5973 27.7962 91.7642 28.6265 91.7642 29.6506C91.7642 30.6748 92.5973 31.5051 93.625 31.5051Z" fill="#777777" fill-opacity="0.1"/>
<path d="M105.092 31.5051C106.12 31.5051 106.953 30.6748 106.953 29.6506C106.953 28.6265 106.12 27.7962 105.092 27.7962C104.064 27.7962 103.231 28.6265 103.231 29.6506C103.231 30.6748 104.064 31.5051 105.092 31.5051Z" fill="#777777" fill-opacity="0.1"/>
<path d="M116.559 31.5051C117.587 31.5051 118.42 30.6748 118.42 29.6506C118.42 28.6265 117.587 27.7962 116.559 27.7962C115.531 27.7962 114.698 28.6265 114.698 29.6506C114.698 30.6748 115.531 31.5051 116.559 31.5051Z" fill="#777777" fill-opacity="0.1"/>
<path d="M128.026 31.5051C129.054 31.5051 129.887 30.6748 129.887 29.6506C129.887 28.6265 129.054 27.7962 128.026 27.7962C126.999 27.7962 126.166 28.6265 126.166 29.6506C126.166 30.6748 126.999 31.5051 128.026 31.5051Z" fill="#777777" fill-opacity="0.1"/>
<path d="M139.493 31.5051C140.521 31.5051 141.354 30.6748 141.354 29.6506C141.354 28.6265 140.521 27.7962 139.493 27.7962C138.466 27.7962 137.633 28.6265 137.633 29.6506C137.633 30.6748 138.466 31.5051 139.493 31.5051Z" fill="#777777" fill-opacity="0.1"/>
<path d="M150.96 31.5051C151.988 31.5051 152.821 30.6748 152.821 29.6506C152.821 28.6265 151.988 27.7962 150.96 27.7962C149.933 27.7962 149.1 28.6265 149.1 29.6506C149.1 30.6748 149.933 31.5051 150.96 31.5051Z" fill="#777777" fill-opacity="0.1"/>
<path d="M162.428 31.5051C163.455 31.5051 164.289 30.6748 164.289 29.6506C164.289 28.6265 163.455 27.7962 162.428 27.7962C161.4 27.7962 160.567 28.6265 160.567 29.6506C160.567 30.6748 161.4 31.5051 162.428 31.5051Z" fill="#777777" fill-opacity="0.1"/>
<path d="M173.895 31.5051C174.923 31.5051 175.756 30.6748 175.756 29.6506C175.756 28.6265 174.923 27.7962 173.895 27.7962C172.867 27.7962 172.034 28.6265 172.034 29.6506C172.034 30.6748 172.867 31.5051 173.895 31.5051Z" fill="#777777" fill-opacity="0.1"/>
<path d="M185.362 31.5051C186.39 31.5051 187.223 30.6748 187.223 29.6506C187.223 28.6265 186.39 27.7962 185.362 27.7962C184.334 27.7962 183.501 28.6265 183.501 29.6506C183.501 30.6748 184.334 31.5051 185.362 31.5051Z" fill="#777777" fill-opacity="0.1"/>
<path d="M196.829 31.5051C197.857 31.5051 198.69 30.6748 198.69 29.6506C198.69 28.6265 197.857 27.7962 196.829 27.7962C195.801 27.7962 194.968 28.6265 194.968 29.6506C194.968 30.6748 195.801 31.5051 196.829 31.5051Z" fill="#777777" fill-opacity="0.1"/>
<path d="M208.296 31.5051C209.324 31.5051 210.157 30.6748 210.157 29.6506C210.157 28.6265 209.324 27.7962 208.296 27.7962C207.268 27.7962 206.435 28.6265 206.435 29.6506C206.435 30.6748 207.268 31.5051 208.296 31.5051Z" fill="#777777" fill-opacity="0.1"/>
<path d="M219.763 31.5051C220.791 31.5051 221.624 30.6748 221.624 29.6506C221.624 28.6265 220.791 27.7962 219.763 27.7962C218.735 27.7962 217.902 28.6265 217.902 29.6506C217.902 30.6748 218.735 31.5051 219.763 31.5051Z" fill="#777777" fill-opacity="0.1"/>
<path d="M1.88796 45.4032C2.91568 45.4032 3.74882 44.5729 3.74882 43.5488C3.74882 42.5246 2.91568 41.6943 1.88796 41.6943C0.860235 41.6943 0.0270996 42.5246 0.0270996 43.5488C0.0270996 44.5729 0.860235 45.4032 1.88796 45.4032Z" fill="#777777" fill-opacity="0.1"/>
<path d="M13.355 45.4032C14.3827 45.4032 15.2159 44.5729 15.2159 43.5488C15.2159 42.5246 14.3827 41.6943 13.355 41.6943C12.3273 41.6943 11.4941 42.5246 11.4941 43.5488C11.4941 44.5729 12.3273 45.4032 13.355 45.4032Z" fill="#777777" fill-opacity="0.1"/>
<path d="M24.8223 45.4032C25.85 45.4032 26.6831 44.5729 26.6831 43.5488C26.6831 42.5246 25.85 41.6943 24.8223 41.6943C23.7946 41.6943 22.9614 42.5246 22.9614 43.5488C22.9614 44.5729 23.7946 45.4032 24.8223 45.4032Z" fill="#777777" fill-opacity="0.1"/>
<path d="M36.2893 45.4032C37.317 45.4032 38.1502 44.5729 38.1502 43.5488C38.1502 42.5246 37.317 41.6943 36.2893 41.6943C35.2616 41.6943 34.4285 42.5246 34.4285 43.5488C34.4285 44.5729 35.2616 45.4032 36.2893 45.4032Z" fill="#777777" fill-opacity="0.1"/>
<path d="M47.7564 45.4032C48.7841 45.4032 49.6172 44.5729 49.6172 43.5488C49.6172 42.5246 48.7841 41.6943 47.7564 41.6943C46.7286 41.6943 45.8955 42.5246 45.8955 43.5488C45.8955 44.5729 46.7286 45.4032 47.7564 45.4032Z" fill="#777777" fill-opacity="0.1"/>
<path d="M59.2237 45.4032C60.2514 45.4032 61.0845 44.5729 61.0845 43.5488C61.0845 42.5246 60.2514 41.6943 59.2237 41.6943C58.1959 41.6943 57.3628 42.5246 57.3628 43.5488C57.3628 44.5729 58.1959 45.4032 59.2237 45.4032Z" fill="#777777" fill-opacity="0.1"/>
<path d="M70.6907 45.4032C71.7184 45.4032 72.5516 44.5729 72.5516 43.5488C72.5516 42.5246 71.7184 41.6943 70.6907 41.6943C69.663 41.6943 68.8298 42.5246 68.8298 43.5488C68.8298 44.5729 69.663 45.4032 70.6907 45.4032Z" fill="#777777" fill-opacity="0.1"/>
<path d="M82.1577 45.4032C83.1855 45.4032 84.0186 44.5729 84.0186 43.5488C84.0186 42.5246 83.1855 41.6943 82.1577 41.6943C81.13 41.6943 80.2969 42.5246 80.2969 43.5488C80.2969 44.5729 81.13 45.4032 82.1577 45.4032Z" fill="#777777" fill-opacity="0.1"/>
<path d="M93.625 45.4032C94.6527 45.4032 95.4859 44.5729 95.4859 43.5488C95.4859 42.5246 94.6527 41.6943 93.625 41.6943C92.5973 41.6943 91.7642 42.5246 91.7642 43.5488C91.7642 44.5729 92.5973 45.4032 93.625 45.4032Z" fill="#777777" fill-opacity="0.1"/>
<path d="M105.092 45.4032C106.12 45.4032 106.953 44.5729 106.953 43.5488C106.953 42.5246 106.12 41.6943 105.092 41.6943C104.064 41.6943 103.231 42.5246 103.231 43.5488C103.231 44.5729 104.064 45.4032 105.092 45.4032Z" fill="#777777" fill-opacity="0.1"/>
<path d="M116.559 45.4032C117.587 45.4032 118.42 44.5729 118.42 43.5488C118.42 42.5246 117.587 41.6943 116.559 41.6943C115.531 41.6943 114.698 42.5246 114.698 43.5488C114.698 44.5729 115.531 45.4032 116.559 45.4032Z" fill="#777777" fill-opacity="0.1"/>
<path d="M128.026 45.4032C129.054 45.4032 129.887 44.5729 129.887 43.5488C129.887 42.5246 129.054 41.6943 128.026 41.6943C126.999 41.6943 126.166 42.5246 126.166 43.5488C126.166 44.5729 126.999 45.4032 128.026 45.4032Z" fill="#777777" fill-opacity="0.1"/>
<path d="M139.493 45.4032C140.521 45.4032 141.354 44.5729 141.354 43.5488C141.354 42.5246 140.521 41.6943 139.493 41.6943C138.466 41.6943 137.633 42.5246 137.633 43.5488C137.633 44.5729 138.466 45.4032 139.493 45.4032Z" fill="#777777" fill-opacity="0.1"/>
<path d="M150.96 45.4032C151.988 45.4032 152.821 44.5729 152.821 43.5488C152.821 42.5246 151.988 41.6943 150.96 41.6943C149.933 41.6943 149.1 42.5246 149.1 43.5488C149.1 44.5729 149.933 45.4032 150.96 45.4032Z" fill="#777777" fill-opacity="0.1"/>
<path d="M162.428 45.4032C163.455 45.4032 164.289 44.5729 164.289 43.5488C164.289 42.5246 163.455 41.6943 162.428 41.6943C161.4 41.6943 160.567 42.5246 160.567 43.5488C160.567 44.5729 161.4 45.4032 162.428 45.4032Z" fill="#777777" fill-opacity="0.1"/>
<path d="M173.895 45.4032C174.923 45.4032 175.756 44.5729 175.756 43.5488C175.756 42.5246 174.923 41.6943 173.895 41.6943C172.867 41.6943 172.034 42.5246 172.034 43.5488C172.034 44.5729 172.867 45.4032 173.895 45.4032Z" fill="#777777" fill-opacity="0.1"/>
<path d="M185.362 45.4032C186.39 45.4032 187.223 44.5729 187.223 43.5488C187.223 42.5246 186.39 41.6943 185.362 41.6943C184.334 41.6943 183.501 42.5246 183.501 43.5488C183.501 44.5729 184.334 45.4032 185.362 45.4032Z" fill="#777777" fill-opacity="0.1"/>
<path d="M196.829 45.4032C197.857 45.4032 198.69 44.5729 198.69 43.5488C198.69 42.5246 197.857 41.6943 196.829 41.6943C195.801 41.6943 194.968 42.5246 194.968 43.5488C194.968 44.5729 195.801 45.4032 196.829 45.4032Z" fill="#777777" fill-opacity="0.1"/>
<path d="M208.296 45.4032C209.324 45.4032 210.157 44.5729 210.157 43.5488C210.157 42.5246 209.324 41.6943 208.296 41.6943C207.268 41.6943 206.435 42.5246 206.435 43.5488C206.435 44.5729 207.268 45.4032 208.296 45.4032Z" fill="#777777" fill-opacity="0.1"/>
<path d="M219.763 45.4032C220.791 45.4032 221.624 44.5729 221.624 43.5488C221.624 42.5246 220.791 41.6943 219.763 41.6943C218.735 41.6943 217.902 42.5246 217.902 43.5488C217.902 44.5729 218.735 45.4032 219.763 45.4032Z" fill="#777777" fill-opacity="0.1"/>
<path d="M1.88796 59.3013C2.91568 59.3013 3.74882 58.4711 3.74882 57.4469C3.74882 56.4227 2.91568 55.5924 1.88796 55.5924C0.860235 55.5924 0.0270996 56.4227 0.0270996 57.4469C0.0270996 58.4711 0.860235 59.3013 1.88796 59.3013Z" fill="#777777" fill-opacity="0.1"/>
<path d="M13.355 59.3013C14.3827 59.3013 15.2159 58.4711 15.2159 57.4469C15.2159 56.4227 14.3827 55.5924 13.355 55.5924C12.3273 55.5924 11.4941 56.4227 11.4941 57.4469C11.4941 58.4711 12.3273 59.3013 13.355 59.3013Z" fill="#777777" fill-opacity="0.1"/>
<path d="M24.8223 59.3013C25.85 59.3013 26.6831 58.4711 26.6831 57.4469C26.6831 56.4227 25.85 55.5924 24.8223 55.5924C23.7946 55.5924 22.9614 56.4227 22.9614 57.4469C22.9614 58.4711 23.7946 59.3013 24.8223 59.3013Z" fill="#777777" fill-opacity="0.1"/>
<path d="M36.2893 59.3013C37.317 59.3013 38.1502 58.4711 38.1502 57.4469C38.1502 56.4227 37.317 55.5924 36.2893 55.5924C35.2616 55.5924 34.4285 56.4227 34.4285 57.4469C34.4285 58.4711 35.2616 59.3013 36.2893 59.3013Z" fill="#777777" fill-opacity="0.1"/>
<path d="M47.7564 59.3013C48.7841 59.3013 49.6172 58.4711 49.6172 57.4469C49.6172 56.4227 48.7841 55.5924 47.7564 55.5924C46.7286 55.5924 45.8955 56.4227 45.8955 57.4469C45.8955 58.4711 46.7286 59.3013 47.7564 59.3013Z" fill="#777777" fill-opacity="0.1"/>
<path d="M59.2237 59.3013C60.2514 59.3013 61.0845 58.4711 61.0845 57.4469C61.0845 56.4227 60.2514 55.5924 59.2237 55.5924C58.1959 55.5924 57.3628 56.4227 57.3628 57.4469C57.3628 58.4711 58.1959 59.3013 59.2237 59.3013Z" fill="#777777" fill-opacity="0.1"/>
<path d="M70.6907 59.3013C71.7184 59.3013 72.5516 58.4711 72.5516 57.4469C72.5516 56.4227 71.7184 55.5924 70.6907 55.5924C69.663 55.5924 68.8298 56.4227 68.8298 57.4469C68.8298 58.4711 69.663 59.3013 70.6907 59.3013Z" fill="#777777" fill-opacity="0.1"/>
<path d="M82.1577 59.3013C83.1855 59.3013 84.0186 58.4711 84.0186 57.4469C84.0186 56.4227 83.1855 55.5924 82.1577 55.5924C81.13 55.5924 80.2969 56.4227 80.2969 57.4469C80.2969 58.4711 81.13 59.3013 82.1577 59.3013Z" fill="#777777" fill-opacity="0.1"/>
<path d="M93.625 59.3013C94.6527 59.3013 95.4859 58.4711 95.4859 57.4469C95.4859 56.4227 94.6527 55.5924 93.625 55.5924C92.5973 55.5924 91.7642 56.4227 91.7642 57.4469C91.7642 58.4711 92.5973 59.3013 93.625 59.3013Z" fill="#777777" fill-opacity="0.1"/>
<path d="M105.092 59.3013C106.12 59.3013 106.953 58.4711 106.953 57.4469C106.953 56.4227 106.12 55.5924 105.092 55.5924C104.064 55.5924 103.231 56.4227 103.231 57.4469C103.231 58.4711 104.064 59.3013 105.092 59.3013Z" fill="#777777" fill-opacity="0.1"/>
<path d="M116.559 59.3013C117.587 59.3013 118.42 58.4711 118.42 57.4469C118.42 56.4227 117.587 55.5924 116.559 55.5924C115.531 55.5924 114.698 56.4227 114.698 57.4469C114.698 58.4711 115.531 59.3013 116.559 59.3013Z" fill="#777777" fill-opacity="0.1"/>
<path d="M128.026 59.3013C129.054 59.3013 129.887 58.4711 129.887 57.4469C129.887 56.4227 129.054 55.5924 128.026 55.5924C126.999 55.5924 126.166 56.4227 126.166 57.4469C126.166 58.4711 126.999 59.3013 128.026 59.3013Z" fill="#777777" fill-opacity="0.1"/>
<path d="M139.493 59.3013C140.521 59.3013 141.354 58.4711 141.354 57.4469C141.354 56.4227 140.521 55.5924 139.493 55.5924C138.466 55.5924 137.633 56.4227 137.633 57.4469C137.633 58.4711 138.466 59.3013 139.493 59.3013Z" fill="#777777" fill-opacity="0.1"/>
<path d="M150.96 59.3013C151.988 59.3013 152.821 58.4711 152.821 57.4469C152.821 56.4227 151.988 55.5924 150.96 55.5924C149.933 55.5924 149.1 56.4227 149.1 57.4469C149.1 58.4711 149.933 59.3013 150.96 59.3013Z" fill="#777777" fill-opacity="0.1"/>
<path d="M162.428 59.3013C163.455 59.3013 164.289 58.4711 164.289 57.4469C164.289 56.4227 163.455 55.5924 162.428 55.5924C161.4 55.5924 160.567 56.4227 160.567 57.4469C160.567 58.4711 161.4 59.3013 162.428 59.3013Z" fill="#777777" fill-opacity="0.1"/>
<path d="M173.895 59.3013C174.923 59.3013 175.756 58.4711 175.756 57.4469C175.756 56.4227 174.923 55.5924 173.895 55.5924C172.867 55.5924 172.034 56.4227 172.034 57.4469C172.034 58.4711 172.867 59.3013 173.895 59.3013Z" fill="#777777" fill-opacity="0.1"/>
<path d="M185.362 59.3013C186.39 59.3013 187.223 58.4711 187.223 57.4469C187.223 56.4227 186.39 55.5924 185.362 55.5924C184.334 55.5924 183.501 56.4227 183.501 57.4469C183.501 58.4711 184.334 59.3013 185.362 59.3013Z" fill="#777777" fill-opacity="0.1"/>
<path d="M196.829 59.3013C197.857 59.3013 198.69 58.4711 198.69 57.4469C198.69 56.4227 197.857 55.5924 196.829 55.5924C195.801 55.5924 194.968 56.4227 194.968 57.4469C194.968 58.4711 195.801 59.3013 196.829 59.3013Z" fill="#777777" fill-opacity="0.1"/>
<path d="M208.296 59.3013C209.324 59.3013 210.157 58.4711 210.157 57.4469C210.157 56.4227 209.324 55.5924 208.296 55.5924C207.268 55.5924 206.435 56.4227 206.435 57.4469C206.435 58.4711 207.268 59.3013 208.296 59.3013Z" fill="#777777" fill-opacity="0.1"/>
<path d="M219.763 59.3013C220.791 59.3013 221.624 58.4711 221.624 57.4469C221.624 56.4227 220.791 55.5924 219.763 55.5924C218.735 55.5924 217.902 56.4227 217.902 57.4469C217.902 58.4711 218.735 59.3013 219.763 59.3013Z" fill="#777777" fill-opacity="0.1"/>
<path d="M1.88796 73.1994C2.91568 73.1994 3.74882 72.3692 3.74882 71.345C3.74882 70.3208 2.91568 69.4905 1.88796 69.4905C0.860235 69.4905 0.0270996 70.3208 0.0270996 71.345C0.0270996 72.3692 0.860235 73.1994 1.88796 73.1994Z" fill="#777777" fill-opacity="0.1"/>
<path d="M13.355 73.1994C14.3827 73.1994 15.2159 72.3692 15.2159 71.345C15.2159 70.3208 14.3827 69.4905 13.355 69.4905C12.3273 69.4905 11.4941 70.3208 11.4941 71.345C11.4941 72.3692 12.3273 73.1994 13.355 73.1994Z" fill="#777777" fill-opacity="0.1"/>
<path d="M24.8223 73.1994C25.85 73.1994 26.6831 72.3692 26.6831 71.345C26.6831 70.3208 25.85 69.4905 24.8223 69.4905C23.7946 69.4905 22.9614 70.3208 22.9614 71.345C22.9614 72.3692 23.7946 73.1994 24.8223 73.1994Z" fill="#777777" fill-opacity="0.1"/>
<path d="M36.2893 73.1994C37.317 73.1994 38.1502 72.3692 38.1502 71.345C38.1502 70.3208 37.317 69.4905 36.2893 69.4905C35.2616 69.4905 34.4285 70.3208 34.4285 71.345C34.4285 72.3692 35.2616 73.1994 36.2893 73.1994Z" fill="#777777" fill-opacity="0.1"/>
<path d="M47.7564 73.1994C48.7841 73.1994 49.6172 72.3692 49.6172 71.345C49.6172 70.3208 48.7841 69.4905 47.7564 69.4905C46.7286 69.4905 45.8955 70.3208 45.8955 71.345C45.8955 72.3692 46.7286 73.1994 47.7564 73.1994Z" fill="#777777" fill-opacity="0.1"/>
<path d="M59.2237 73.1994C60.2514 73.1994 61.0845 72.3692 61.0845 71.345C61.0845 70.3208 60.2514 69.4905 59.2237 69.4905C58.1959 69.4905 57.3628 70.3208 57.3628 71.345C57.3628 72.3692 58.1959 73.1994 59.2237 73.1994Z" fill="#777777" fill-opacity="0.1"/>
<path d="M70.6907 73.1994C71.7184 73.1994 72.5516 72.3692 72.5516 71.345C72.5516 70.3208 71.7184 69.4905 70.6907 69.4905C69.663 69.4905 68.8298 70.3208 68.8298 71.345C68.8298 72.3692 69.663 73.1994 70.6907 73.1994Z" fill="#777777" fill-opacity="0.1"/>
<path d="M82.1577 73.1994C83.1855 73.1994 84.0186 72.3692 84.0186 71.345C84.0186 70.3208 83.1855 69.4905 82.1577 69.4905C81.13 69.4905 80.2969 70.3208 80.2969 71.345C80.2969 72.3692 81.13 73.1994 82.1577 73.1994Z" fill="#777777" fill-opacity="0.1"/>
<path d="M93.625 73.1994C94.6527 73.1994 95.4859 72.3692 95.4859 71.345C95.4859 70.3208 94.6527 69.4905 93.625 69.4905C92.5973 69.4905 91.7642 70.3208 91.7642 71.345C91.7642 72.3692 92.5973 73.1994 93.625 73.1994Z" fill="#777777" fill-opacity="0.1"/>
<path d="M105.092 73.1994C106.12 73.1994 106.953 72.3692 106.953 71.345C106.953 70.3208 106.12 69.4905 105.092 69.4905C104.064 69.4905 103.231 70.3208 103.231 71.345C103.231 72.3692 104.064 73.1994 105.092 73.1994Z" fill="#777777" fill-opacity="0.1"/>
<path d="M116.559 73.1994C117.587 73.1994 118.42 72.3692 118.42 71.345C118.42 70.3208 117.587 69.4905 116.559 69.4905C115.531 69.4905 114.698 70.3208 114.698 71.345C114.698 72.3692 115.531 73.1994 116.559 73.1994Z" fill="#777777" fill-opacity="0.1"/>
<path d="M128.026 73.1994C129.054 73.1994 129.887 72.3692 129.887 71.345C129.887 70.3208 129.054 69.4905 128.026 69.4905C126.999 69.4905 126.166 70.3208 126.166 71.345C126.166 72.3692 126.999 73.1994 128.026 73.1994Z" fill="#777777" fill-opacity="0.1"/>
<path d="M139.493 73.1994C140.521 73.1994 141.354 72.3692 141.354 71.345C141.354 70.3208 140.521 69.4905 139.493 69.4905C138.466 69.4905 137.633 70.3208 137.633 71.345C137.633 72.3692 138.466 73.1994 139.493 73.1994Z" fill="#777777" fill-opacity="0.1"/>
<path d="M150.96 73.1994C151.988 73.1994 152.821 72.3692 152.821 71.345C152.821 70.3208 151.988 69.4905 150.96 69.4905C149.933 69.4905 149.1 70.3208 149.1 71.345C149.1 72.3692 149.933 73.1994 150.96 73.1994Z" fill="#777777" fill-opacity="0.1"/>
<path d="M162.428 73.1994C163.455 73.1994 164.289 72.3692 164.289 71.345C164.289 70.3208 163.455 69.4905 162.428 69.4905C161.4 69.4905 160.567 70.3208 160.567 71.345C160.567 72.3692 161.4 73.1994 162.428 73.1994Z" fill="#777777" fill-opacity="0.1"/>
<path d="M173.895 73.1994C174.923 73.1994 175.756 72.3692 175.756 71.345C175.756 70.3208 174.923 69.4905 173.895 69.4905C172.867 69.4905 172.034 70.3208 172.034 71.345C172.034 72.3692 172.867 73.1994 173.895 73.1994Z" fill="#777777" fill-opacity="0.1"/>
<path d="M185.362 73.1994C186.39 73.1994 187.223 72.3692 187.223 71.345C187.223 70.3208 186.39 69.4905 185.362 69.4905C184.334 69.4905 183.501 70.3208 183.501 71.345C183.501 72.3692 184.334 73.1994 185.362 73.1994Z" fill="#777777" fill-opacity="0.1"/>
<path d="M196.829 73.1994C197.857 73.1994 198.69 72.3692 198.69 71.345C198.69 70.3208 197.857 69.4905 196.829 69.4905C195.801 69.4905 194.968 70.3208 194.968 71.345C194.968 72.3692 195.801 73.1994 196.829 73.1994Z" fill="#777777" fill-opacity="0.1"/>
<path d="M208.296 73.1994C209.324 73.1994 210.157 72.3692 210.157 71.345C210.157 70.3208 209.324 69.4905 208.296 69.4905C207.268 69.4905 206.435 70.3208 206.435 71.345C206.435 72.3692 207.268 73.1994 208.296 73.1994Z" fill="#777777" fill-opacity="0.1"/>
<path d="M219.763 73.1994C220.791 73.1994 221.624 72.3692 221.624 71.345C221.624 70.3208 220.791 69.4905 219.763 69.4905C218.735 69.4905 217.902 70.3208 217.902 71.345C217.902 72.3692 218.735 73.1994 219.763 73.1994Z" fill="#777777" fill-opacity="0.1"/>
<path d="M1.88796 87.0975C2.91568 87.0975 3.74882 86.2673 3.74882 85.2431C3.74882 84.2189 2.91568 83.3886 1.88796 83.3886C0.860235 83.3886 0.0270996 84.2189 0.0270996 85.2431C0.0270996 86.2673 0.860235 87.0975 1.88796 87.0975Z" fill="#777777" fill-opacity="0.1"/>
<path d="M13.355 87.0975C14.3827 87.0975 15.2159 86.2673 15.2159 85.2431C15.2159 84.2189 14.3827 83.3886 13.355 83.3886C12.3273 83.3886 11.4941 84.2189 11.4941 85.2431C11.4941 86.2673 12.3273 87.0975 13.355 87.0975Z" fill="#777777" fill-opacity="0.1"/>
<path d="M24.8223 87.0975C25.85 87.0975 26.6831 86.2673 26.6831 85.2431C26.6831 84.2189 25.85 83.3886 24.8223 83.3886C23.7946 83.3886 22.9614 84.2189 22.9614 85.2431C22.9614 86.2673 23.7946 87.0975 24.8223 87.0975Z" fill="#777777" fill-opacity="0.1"/>
<path d="M36.2893 87.0975C37.317 87.0975 38.1502 86.2673 38.1502 85.2431C38.1502 84.2189 37.317 83.3886 36.2893 83.3886C35.2616 83.3886 34.4285 84.2189 34.4285 85.2431C34.4285 86.2673 35.2616 87.0975 36.2893 87.0975Z" fill="#777777" fill-opacity="0.1"/>
<path d="M47.7564 87.0975C48.7841 87.0975 49.6172 86.2673 49.6172 85.2431C49.6172 84.2189 48.7841 83.3886 47.7564 83.3886C46.7286 83.3886 45.8955 84.2189 45.8955 85.2431C45.8955 86.2673 46.7286 87.0975 47.7564 87.0975Z" fill="#777777" fill-opacity="0.1"/>
<path d="M59.2237 87.0975C60.2514 87.0975 61.0845 86.2673 61.0845 85.2431C61.0845 84.2189 60.2514 83.3886 59.2237 83.3886C58.1959 83.3886 57.3628 84.2189 57.3628 85.2431C57.3628 86.2673 58.1959 87.0975 59.2237 87.0975Z" fill="#777777" fill-opacity="0.1"/>
<path d="M70.6907 87.0975C71.7184 87.0975 72.5516 86.2673 72.5516 85.2431C72.5516 84.2189 71.7184 83.3886 70.6907 83.3886C69.663 83.3886 68.8298 84.2189 68.8298 85.2431C68.8298 86.2673 69.663 87.0975 70.6907 87.0975Z" fill="#777777" fill-opacity="0.1"/>
<path d="M82.1577 87.0975C83.1855 87.0975 84.0186 86.2673 84.0186 85.2431C84.0186 84.2189 83.1855 83.3886 82.1577 83.3886C81.13 83.3886 80.2969 84.2189 80.2969 85.2431C80.2969 86.2673 81.13 87.0975 82.1577 87.0975Z" fill="#777777" fill-opacity="0.1"/>
<path d="M93.625 87.0975C94.6527 87.0975 95.4859 86.2673 95.4859 85.2431C95.4859 84.2189 94.6527 83.3886 93.625 83.3886C92.5973 83.3886 91.7642 84.2189 91.7642 85.2431C91.7642 86.2673 92.5973 87.0975 93.625 87.0975Z" fill="#777777" fill-opacity="0.1"/>
<path d="M105.092 87.0975C106.12 87.0975 106.953 86.2673 106.953 85.2431C106.953 84.2189 106.12 83.3886 105.092 83.3886C104.064 83.3886 103.231 84.2189 103.231 85.2431C103.231 86.2673 104.064 87.0975 105.092 87.0975Z" fill="#777777" fill-opacity="0.1"/>
<path d="M116.559 87.0975C117.587 87.0975 118.42 86.2673 118.42 85.2431C118.42 84.2189 117.587 83.3886 116.559 83.3886C115.531 83.3886 114.698 84.2189 114.698 85.2431C114.698 86.2673 115.531 87.0975 116.559 87.0975Z" fill="#777777" fill-opacity="0.1"/>
<path d="M128.026 87.0975C129.054 87.0975 129.887 86.2673 129.887 85.2431C129.887 84.2189 129.054 83.3886 128.026 83.3886C126.999 83.3886 126.166 84.2189 126.166 85.2431C126.166 86.2673 126.999 87.0975 128.026 87.0975Z" fill="#777777" fill-opacity="0.1"/>
<path d="M139.493 87.0975C140.521 87.0975 141.354 86.2673 141.354 85.2431C141.354 84.2189 140.521 83.3886 139.493 83.3886C138.466 83.3886 137.633 84.2189 137.633 85.2431C137.633 86.2673 138.466 87.0975 139.493 87.0975Z" fill="#777777" fill-opacity="0.1"/>
<path d="M150.96 87.0975C151.988 87.0975 152.821 86.2673 152.821 85.2431C152.821 84.2189 151.988 83.3886 150.96 83.3886C149.933 83.3886 149.1 84.2189 149.1 85.2431C149.1 86.2673 149.933 87.0975 150.96 87.0975Z" fill="#777777" fill-opacity="0.1"/>
<path d="M162.428 87.0975C163.455 87.0975 164.289 86.2673 164.289 85.2431C164.289 84.2189 163.455 83.3886 162.428 83.3886C161.4 83.3886 160.567 84.2189 160.567 85.2431C160.567 86.2673 161.4 87.0975 162.428 87.0975Z" fill="#777777" fill-opacity="0.1"/>
<path d="M173.895 87.0975C174.923 87.0975 175.756 86.2673 175.756 85.2431C175.756 84.2189 174.923 83.3886 173.895 83.3886C172.867 83.3886 172.034 84.2189 172.034 85.2431C172.034 86.2673 172.867 87.0975 173.895 87.0975Z" fill="#777777" fill-opacity="0.1"/>
<path d="M185.362 87.0975C186.39 87.0975 187.223 86.2673 187.223 85.2431C187.223 84.2189 186.39 83.3886 185.362 83.3886C184.334 83.3886 183.501 84.2189 183.501 85.2431C183.501 86.2673 184.334 87.0975 185.362 87.0975Z" fill="#777777" fill-opacity="0.1"/>
<path d="M196.829 87.0975C197.857 87.0975 198.69 86.2673 198.69 85.2431C198.69 84.2189 197.857 83.3886 196.829 83.3886C195.801 83.3886 194.968 84.2189 194.968 85.2431C194.968 86.2673 195.801 87.0975 196.829 87.0975Z" fill="#777777" fill-opacity="0.1"/>
<path d="M208.296 87.0975C209.324 87.0975 210.157 86.2673 210.157 85.2431C210.157 84.2189 209.324 83.3886 208.296 83.3886C207.268 83.3886 206.435 84.2189 206.435 85.2431C206.435 86.2673 207.268 87.0975 208.296 87.0975Z" fill="#777777" fill-opacity="0.1"/>
<path d="M219.763 87.0975C220.791 87.0975 221.624 86.2673 221.624 85.2431C221.624 84.2189 220.791 83.3886 219.763 83.3886C218.735 83.3886 217.902 84.2189 217.902 85.2431C217.902 86.2673 218.735 87.0975 219.763 87.0975Z" fill="#777777" fill-opacity="0.1"/>
<path d="M1.88796 100.996C2.91568 100.996 3.74882 100.165 3.74882 99.1412C3.74882 98.117 2.91568 97.2867 1.88796 97.2867C0.860235 97.2867 0.0270996 98.117 0.0270996 99.1412C0.0270996 100.165 0.860235 100.996 1.88796 100.996Z" fill="#777777" fill-opacity="0.1"/>
<path d="M13.355 100.996C14.3827 100.996 15.2159 100.165 15.2159 99.1412C15.2159 98.117 14.3827 97.2867 13.355 97.2867C12.3273 97.2867 11.4941 98.117 11.4941 99.1412C11.4941 100.165 12.3273 100.996 13.355 100.996Z" fill="#777777" fill-opacity="0.1"/>
<path d="M24.8223 100.996C25.85 100.996 26.6831 100.165 26.6831 99.1412C26.6831 98.117 25.85 97.2867 24.8223 97.2867C23.7946 97.2867 22.9614 98.117 22.9614 99.1412C22.9614 100.165 23.7946 100.996 24.8223 100.996Z" fill="#777777" fill-opacity="0.1"/>
<path d="M36.2893 100.996C37.317 100.996 38.1502 100.165 38.1502 99.1412C38.1502 98.117 37.317 97.2867 36.2893 97.2867C35.2616 97.2867 34.4285 98.117 34.4285 99.1412C34.4285 100.165 35.2616 100.996 36.2893 100.996Z" fill="#777777" fill-opacity="0.1"/>
<path d="M47.7564 100.996C48.7841 100.996 49.6172 100.165 49.6172 99.1412C49.6172 98.117 48.7841 97.2867 47.7564 97.2867C46.7286 97.2867 45.8955 98.117 45.8955 99.1412C45.8955 100.165 46.7286 100.996 47.7564 100.996Z" fill="#777777" fill-opacity="0.1"/>
<path d="M59.2237 100.996C60.2514 100.996 61.0845 100.165 61.0845 99.1412C61.0845 98.117 60.2514 97.2867 59.2237 97.2867C58.1959 97.2867 57.3628 98.117 57.3628 99.1412C57.3628 100.165 58.1959 100.996 59.2237 100.996Z" fill="#777777" fill-opacity="0.1"/>
<path d="M70.6907 100.996C71.7184 100.996 72.5516 100.165 72.5516 99.1412C72.5516 98.117 71.7184 97.2867 70.6907 97.2867C69.663 97.2867 68.8298 98.117 68.8298 99.1412C68.8298 100.165 69.663 100.996 70.6907 100.996Z" fill="#777777" fill-opacity="0.1"/>
<path d="M82.1577 100.996C83.1855 100.996 84.0186 100.165 84.0186 99.1412C84.0186 98.117 83.1855 97.2867 82.1577 97.2867C81.13 97.2867 80.2969 98.117 80.2969 99.1412C80.2969 100.165 81.13 100.996 82.1577 100.996Z" fill="#777777" fill-opacity="0.1"/>
<path d="M93.625 100.996C94.6527 100.996 95.4859 100.165 95.4859 99.1412C95.4859 98.117 94.6527 97.2867 93.625 97.2867C92.5973 97.2867 91.7642 98.117 91.7642 99.1412C91.7642 100.165 92.5973 100.996 93.625 100.996Z" fill="#777777" fill-opacity="0.1"/>
<path d="M105.092 100.996C106.12 100.996 106.953 100.165 106.953 99.1412C106.953 98.117 106.12 97.2867 105.092 97.2867C104.064 97.2867 103.231 98.117 103.231 99.1412C103.231 100.165 104.064 100.996 105.092 100.996Z" fill="#777777" fill-opacity="0.1"/>
<path d="M116.559 100.996C117.587 100.996 118.42 100.165 118.42 99.1412C118.42 98.117 117.587 97.2867 116.559 97.2867C115.531 97.2867 114.698 98.117 114.698 99.1412C114.698 100.165 115.531 100.996 116.559 100.996Z" fill="#777777" fill-opacity="0.1"/>
<path d="M128.026 100.996C129.054 100.996 129.887 100.165 129.887 99.1412C129.887 98.117 129.054 97.2867 128.026 97.2867C126.999 97.2867 126.166 98.117 126.166 99.1412C126.166 100.165 126.999 100.996 128.026 100.996Z" fill="#777777" fill-opacity="0.1"/>
<path d="M139.493 100.996C140.521 100.996 141.354 100.165 141.354 99.1412C141.354 98.117 140.521 97.2867 139.493 97.2867C138.466 97.2867 137.633 98.117 137.633 99.1412C137.633 100.165 138.466 100.996 139.493 100.996Z" fill="#777777" fill-opacity="0.1"/>
<path d="M150.96 100.996C151.988 100.996 152.821 100.165 152.821 99.1412C152.821 98.117 151.988 97.2867 150.96 97.2867C149.933 97.2867 149.1 98.117 149.1 99.1412C149.1 100.165 149.933 100.996 150.96 100.996Z" fill="#777777" fill-opacity="0.1"/>
<path d="M162.428 100.996C163.455 100.996 164.289 100.165 164.289 99.1412C164.289 98.117 163.455 97.2867 162.428 97.2867C161.4 97.2867 160.567 98.117 160.567 99.1412C160.567 100.165 161.4 100.996 162.428 100.996Z" fill="#777777" fill-opacity="0.1"/>
<path d="M173.895 100.996C174.923 100.996 175.756 100.165 175.756 99.1412C175.756 98.117 174.923 97.2867 173.895 97.2867C172.867 97.2867 172.034 98.117 172.034 99.1412C172.034 100.165 172.867 100.996 173.895 100.996Z" fill="#777777" fill-opacity="0.1"/>
<path d="M185.362 100.996C186.39 100.996 187.223 100.165 187.223 99.1412C187.223 98.117 186.39 97.2867 185.362 97.2867C184.334 97.2867 183.501 98.117 183.501 99.1412C183.501 100.165 184.334 100.996 185.362 100.996Z" fill="#777777" fill-opacity="0.1"/>
<path d="M196.829 100.996C197.857 100.996 198.69 100.165 198.69 99.1412C198.69 98.117 197.857 97.2867 196.829 97.2867C195.801 97.2867 194.968 98.117 194.968 99.1412C194.968 100.165 195.801 100.996 196.829 100.996Z" fill="#777777" fill-opacity="0.1"/>
<path d="M208.296 100.996C209.324 100.996 210.157 100.165 210.157 99.1412C210.157 98.117 209.324 97.2867 208.296 97.2867C207.268 97.2867 206.435 98.117 206.435 99.1412C206.435 100.165 207.268 100.996 208.296 100.996Z" fill="#777777" fill-opacity="0.1"/>
<path d="M219.763 100.996C220.791 100.996 221.624 100.165 221.624 99.1412C221.624 98.117 220.791 97.2867 219.763 97.2867C218.735 97.2867 217.902 98.117 217.902 99.1412C217.902 100.165 218.735 100.996 219.763 100.996Z" fill="#777777" fill-opacity="0.1"/>
<path d="M1.88796 114.894C2.91568 114.894 3.74882 114.063 3.74882 113.039C3.74882 112.015 2.91568 111.185 1.88796 111.185C0.860235 111.185 0.0270996 112.015 0.0270996 113.039C0.0270996 114.063 0.860235 114.894 1.88796 114.894Z" fill="#777777" fill-opacity="0.1"/>
<path d="M13.355 114.894C14.3827 114.894 15.2159 114.063 15.2159 113.039C15.2159 112.015 14.3827 111.185 13.355 111.185C12.3273 111.185 11.4941 112.015 11.4941 113.039C11.4941 114.063 12.3273 114.894 13.355 114.894Z" fill="#777777" fill-opacity="0.1"/>
<path d="M24.8223 114.894C25.85 114.894 26.6831 114.063 26.6831 113.039C26.6831 112.015 25.85 111.185 24.8223 111.185C23.7946 111.185 22.9614 112.015 22.9614 113.039C22.9614 114.063 23.7946 114.894 24.8223 114.894Z" fill="#777777" fill-opacity="0.1"/>
<path d="M36.2893 114.894C37.317 114.894 38.1502 114.063 38.1502 113.039C38.1502 112.015 37.317 111.185 36.2893 111.185C35.2616 111.185 34.4285 112.015 34.4285 113.039C34.4285 114.063 35.2616 114.894 36.2893 114.894Z" fill="#777777" fill-opacity="0.1"/>
<path d="M47.7564 114.894C48.7841 114.894 49.6172 114.063 49.6172 113.039C49.6172 112.015 48.7841 111.185 47.7564 111.185C46.7286 111.185 45.8955 112.015 45.8955 113.039C45.8955 114.063 46.7286 114.894 47.7564 114.894Z" fill="#777777" fill-opacity="0.1"/>
<path d="M59.2237 114.894C60.2514 114.894 61.0845 114.063 61.0845 113.039C61.0845 112.015 60.2514 111.185 59.2237 111.185C58.1959 111.185 57.3628 112.015 57.3628 113.039C57.3628 114.063 58.1959 114.894 59.2237 114.894Z" fill="#777777" fill-opacity="0.1"/>
<path d="M70.6907 114.894C71.7184 114.894 72.5516 114.063 72.5516 113.039C72.5516 112.015 71.7184 111.185 70.6907 111.185C69.663 111.185 68.8298 112.015 68.8298 113.039C68.8298 114.063 69.663 114.894 70.6907 114.894Z" fill="#777777" fill-opacity="0.1"/>
<path d="M82.1577 114.894C83.1855 114.894 84.0186 114.063 84.0186 113.039C84.0186 112.015 83.1855 111.185 82.1577 111.185C81.13 111.185 80.2969 112.015 80.2969 113.039C80.2969 114.063 81.13 114.894 82.1577 114.894Z" fill="#777777" fill-opacity="0.1"/>
<path d="M93.625 114.894C94.6527 114.894 95.4859 114.063 95.4859 113.039C95.4859 112.015 94.6527 111.185 93.625 111.185C92.5973 111.185 91.7642 112.015 91.7642 113.039C91.7642 114.063 92.5973 114.894 93.625 114.894Z" fill="#777777" fill-opacity="0.1"/>
<path d="M105.092 114.894C106.12 114.894 106.953 114.063 106.953 113.039C106.953 112.015 106.12 111.185 105.092 111.185C104.064 111.185 103.231 112.015 103.231 113.039C103.231 114.063 104.064 114.894 105.092 114.894Z" fill="#777777" fill-opacity="0.1"/>
<path d="M116.559 114.894C117.587 114.894 118.42 114.063 118.42 113.039C118.42 112.015 117.587 111.185 116.559 111.185C115.531 111.185 114.698 112.015 114.698 113.039C114.698 114.063 115.531 114.894 116.559 114.894Z" fill="#777777" fill-opacity="0.1"/>
<path d="M128.026 114.894C129.054 114.894 129.887 114.063 129.887 113.039C129.887 112.015 129.054 111.185 128.026 111.185C126.999 111.185 126.166 112.015 126.166 113.039C126.166 114.063 126.999 114.894 128.026 114.894Z" fill="#777777" fill-opacity="0.1"/>
<path d="M139.493 114.894C140.521 114.894 141.354 114.063 141.354 113.039C141.354 112.015 140.521 111.185 139.493 111.185C138.466 111.185 137.633 112.015 137.633 113.039C137.633 114.063 138.466 114.894 139.493 114.894Z" fill="#777777" fill-opacity="0.1"/>
<path d="M150.96 114.894C151.988 114.894 152.821 114.063 152.821 113.039C152.821 112.015 151.988 111.185 150.96 111.185C149.933 111.185 149.1 112.015 149.1 113.039C149.1 114.063 149.933 114.894 150.96 114.894Z" fill="#777777" fill-opacity="0.1"/>
<path d="M162.428 114.894C163.455 114.894 164.289 114.063 164.289 113.039C164.289 112.015 163.455 111.185 162.428 111.185C161.4 111.185 160.567 112.015 160.567 113.039C160.567 114.063 161.4 114.894 162.428 114.894Z" fill="#777777" fill-opacity="0.1"/>
<path d="M173.895 114.894C174.923 114.894 175.756 114.063 175.756 113.039C175.756 112.015 174.923 111.185 173.895 111.185C172.867 111.185 172.034 112.015 172.034 113.039C172.034 114.063 172.867 114.894 173.895 114.894Z" fill="#777777" fill-opacity="0.1"/>
<path d="M185.362 114.894C186.39 114.894 187.223 114.063 187.223 113.039C187.223 112.015 186.39 111.185 185.362 111.185C184.334 111.185 183.501 112.015 183.501 113.039C183.501 114.063 184.334 114.894 185.362 114.894Z" fill="#777777" fill-opacity="0.1"/>
<path d="M196.829 114.894C197.857 114.894 198.69 114.063 198.69 113.039C198.69 112.015 197.857 111.185 196.829 111.185C195.801 111.185 194.968 112.015 194.968 113.039C194.968 114.063 195.801 114.894 196.829 114.894Z" fill="#777777" fill-opacity="0.1"/>
<path d="M208.296 114.894C209.324 114.894 210.157 114.063 210.157 113.039C210.157 112.015 209.324 111.185 208.296 111.185C207.268 111.185 206.435 112.015 206.435 113.039C206.435 114.063 207.268 114.894 208.296 114.894Z" fill="#777777" fill-opacity="0.1"/>
<path d="M219.763 114.894C220.791 114.894 221.624 114.063 221.624 113.039C221.624 112.015 220.791 111.185 219.763 111.185C218.735 111.185 217.902 112.015 217.902 113.039C217.902 114.063 218.735 114.894 219.763 114.894Z" fill="#777777" fill-opacity="0.1"/>
<path d="M1.88796 128.792C2.91568 128.792 3.74882 127.962 3.74882 126.937C3.74882 125.913 2.91568 125.083 1.88796 125.083C0.860235 125.083 0.0270996 125.913 0.0270996 126.937C0.0270996 127.962 0.860235 128.792 1.88796 128.792Z" fill="#777777" fill-opacity="0.1"/>
<path d="M13.355 128.792C14.3827 128.792 15.2159 127.962 15.2159 126.937C15.2159 125.913 14.3827 125.083 13.355 125.083C12.3273 125.083 11.4941 125.913 11.4941 126.937C11.4941 127.962 12.3273 128.792 13.355 128.792Z" fill="#777777" fill-opacity="0.1"/>
<path d="M24.8223 128.792C25.85 128.792 26.6831 127.962 26.6831 126.937C26.6831 125.913 25.85 125.083 24.8223 125.083C23.7946 125.083 22.9614 125.913 22.9614 126.937C22.9614 127.962 23.7946 128.792 24.8223 128.792Z" fill="#777777" fill-opacity="0.1"/>
<path d="M36.2893 128.792C37.317 128.792 38.1502 127.962 38.1502 126.937C38.1502 125.913 37.317 125.083 36.2893 125.083C35.2616 125.083 34.4285 125.913 34.4285 126.937C34.4285 127.962 35.2616 128.792 36.2893 128.792Z" fill="#777777" fill-opacity="0.1"/>
<path d="M47.7564 128.792C48.7841 128.792 49.6172 127.962 49.6172 126.937C49.6172 125.913 48.7841 125.083 47.7564 125.083C46.7286 125.083 45.8955 125.913 45.8955 126.937C45.8955 127.962 46.7286 128.792 47.7564 128.792Z" fill="#777777" fill-opacity="0.1"/>
<path d="M59.2237 128.792C60.2514 128.792 61.0845 127.962 61.0845 126.937C61.0845 125.913 60.2514 125.083 59.2237 125.083C58.1959 125.083 57.3628 125.913 57.3628 126.937C57.3628 127.962 58.1959 128.792 59.2237 128.792Z" fill="#777777" fill-opacity="0.1"/>
<path d="M70.6907 128.792C71.7184 128.792 72.5516 127.962 72.5516 126.937C72.5516 125.913 71.7184 125.083 70.6907 125.083C69.663 125.083 68.8298 125.913 68.8298 126.937C68.8298 127.962 69.663 128.792 70.6907 128.792Z" fill="#777777" fill-opacity="0.1"/>
<path d="M82.1577 128.792C83.1855 128.792 84.0186 127.962 84.0186 126.937C84.0186 125.913 83.1855 125.083 82.1577 125.083C81.13 125.083 80.2969 125.913 80.2969 126.937C80.2969 127.962 81.13 128.792 82.1577 128.792Z" fill="#777777" fill-opacity="0.1"/>
<path d="M93.625 128.792C94.6527 128.792 95.4859 127.962 95.4859 126.937C95.4859 125.913 94.6527 125.083 93.625 125.083C92.5973 125.083 91.7642 125.913 91.7642 126.937C91.7642 127.962 92.5973 128.792 93.625 128.792Z" fill="#777777" fill-opacity="0.1"/>
<path d="M105.092 128.792C106.12 128.792 106.953 127.962 106.953 126.937C106.953 125.913 106.12 125.083 105.092 125.083C104.064 125.083 103.231 125.913 103.231 126.937C103.231 127.962 104.064 128.792 105.092 128.792Z" fill="#777777" fill-opacity="0.1"/>
<path d="M116.559 128.792C117.587 128.792 118.42 127.962 118.42 126.937C118.42 125.913 117.587 125.083 116.559 125.083C115.531 125.083 114.698 125.913 114.698 126.937C114.698 127.962 115.531 128.792 116.559 128.792Z" fill="#777777" fill-opacity="0.1"/>
<path d="M128.026 128.792C129.054 128.792 129.887 127.962 129.887 126.937C129.887 125.913 129.054 125.083 128.026 125.083C126.999 125.083 126.166 125.913 126.166 126.937C126.166 127.962 126.999 128.792 128.026 128.792Z" fill="#777777" fill-opacity="0.1"/>
<path d="M139.493 128.792C140.521 128.792 141.354 127.962 141.354 126.937C141.354 125.913 140.521 125.083 139.493 125.083C138.466 125.083 137.633 125.913 137.633 126.937C137.633 127.962 138.466 128.792 139.493 128.792Z" fill="#777777" fill-opacity="0.1"/>
<path d="M150.96 128.792C151.988 128.792 152.821 127.962 152.821 126.937C152.821 125.913 151.988 125.083 150.96 125.083C149.933 125.083 149.1 125.913 149.1 126.937C149.1 127.962 149.933 128.792 150.96 128.792Z" fill="#777777" fill-opacity="0.1"/>
<path d="M162.428 128.792C163.455 128.792 164.289 127.962 164.289 126.937C164.289 125.913 163.455 125.083 162.428 125.083C161.4 125.083 160.567 125.913 160.567 126.937C160.567 127.962 161.4 128.792 162.428 128.792Z" fill="#777777" fill-opacity="0.1"/>
<path d="M173.895 128.792C174.923 128.792 175.756 127.962 175.756 126.937C175.756 125.913 174.923 125.083 173.895 125.083C172.867 125.083 172.034 125.913 172.034 126.937C172.034 127.962 172.867 128.792 173.895 128.792Z" fill="#777777" fill-opacity="0.1"/>
<path d="M185.362 128.792C186.39 128.792 187.223 127.962 187.223 126.937C187.223 125.913 186.39 125.083 185.362 125.083C184.334 125.083 183.501 125.913 183.501 126.937C183.501 127.962 184.334 128.792 185.362 128.792Z" fill="#777777" fill-opacity="0.1"/>
<path d="M196.829 128.792C197.857 128.792 198.69 127.962 198.69 126.937C198.69 125.913 197.857 125.083 196.829 125.083C195.801 125.083 194.968 125.913 194.968 126.937C194.968 127.962 195.801 128.792 196.829 128.792Z" fill="#777777" fill-opacity="0.1"/>
<path d="M208.296 128.792C209.324 128.792 210.157 127.962 210.157 126.937C210.157 125.913 209.324 125.083 208.296 125.083C207.268 125.083 206.435 125.913 206.435 126.937C206.435 127.962 207.268 128.792 208.296 128.792Z" fill="#777777" fill-opacity="0.1"/>
<path d="M219.763 128.792C220.791 128.792 221.624 127.962 221.624 126.937C221.624 125.913 220.791 125.083 219.763 125.083C218.735 125.083 217.902 125.913 217.902 126.937C217.902 127.962 218.735 128.792 219.763 128.792Z" fill="#777777" fill-opacity="0.1"/>
<path d="M1.88796 142.69C2.91568 142.69 3.74882 141.86 3.74882 140.835C3.74882 139.811 2.91568 138.981 1.88796 138.981C0.860235 138.981 0.0270996 139.811 0.0270996 140.835C0.0270996 141.86 0.860235 142.69 1.88796 142.69Z" fill="#777777" fill-opacity="0.1"/>
<path d="M13.355 142.69C14.3827 142.69 15.2159 141.86 15.2159 140.835C15.2159 139.811 14.3827 138.981 13.355 138.981C12.3273 138.981 11.4941 139.811 11.4941 140.835C11.4941 141.86 12.3273 142.69 13.355 142.69Z" fill="#777777" fill-opacity="0.1"/>
<path d="M24.8223 142.69C25.85 142.69 26.6831 141.86 26.6831 140.835C26.6831 139.811 25.85 138.981 24.8223 138.981C23.7946 138.981 22.9614 139.811 22.9614 140.835C22.9614 141.86 23.7946 142.69 24.8223 142.69Z" fill="#777777" fill-opacity="0.1"/>
<path d="M36.2893 142.69C37.317 142.69 38.1502 141.86 38.1502 140.835C38.1502 139.811 37.317 138.981 36.2893 138.981C35.2616 138.981 34.4285 139.811 34.4285 140.835C34.4285 141.86 35.2616 142.69 36.2893 142.69Z" fill="#777777" fill-opacity="0.1"/>
<path d="M47.7564 142.69C48.7841 142.69 49.6172 141.86 49.6172 140.835C49.6172 139.811 48.7841 138.981 47.7564 138.981C46.7286 138.981 45.8955 139.811 45.8955 140.835C45.8955 141.86 46.7286 142.69 47.7564 142.69Z" fill="#777777" fill-opacity="0.1"/>
<path d="M59.2237 142.69C60.2514 142.69 61.0845 141.86 61.0845 140.835C61.0845 139.811 60.2514 138.981 59.2237 138.981C58.1959 138.981 57.3628 139.811 57.3628 140.835C57.3628 141.86 58.1959 142.69 59.2237 142.69Z" fill="#777777" fill-opacity="0.1"/>
<path d="M70.6907 142.69C71.7184 142.69 72.5516 141.86 72.5516 140.835C72.5516 139.811 71.7184 138.981 70.6907 138.981C69.663 138.981 68.8298 139.811 68.8298 140.835C68.8298 141.86 69.663 142.69 70.6907 142.69Z" fill="#777777" fill-opacity="0.1"/>
<path d="M82.1577 142.69C83.1855 142.69 84.0186 141.86 84.0186 140.835C84.0186 139.811 83.1855 138.981 82.1577 138.981C81.13 138.981 80.2969 139.811 80.2969 140.835C80.2969 141.86 81.13 142.69 82.1577 142.69Z" fill="#777777" fill-opacity="0.1"/>
<path d="M93.625 142.69C94.6527 142.69 95.4859 141.86 95.4859 140.835C95.4859 139.811 94.6527 138.981 93.625 138.981C92.5973 138.981 91.7642 139.811 91.7642 140.835C91.7642 141.86 92.5973 142.69 93.625 142.69Z" fill="#777777" fill-opacity="0.1"/>
<path d="M105.092 142.69C106.12 142.69 106.953 141.86 106.953 140.835C106.953 139.811 106.12 138.981 105.092 138.981C104.064 138.981 103.231 139.811 103.231 140.835C103.231 141.86 104.064 142.69 105.092 142.69Z" fill="#777777" fill-opacity="0.1"/>
<path d="M116.559 142.69C117.587 142.69 118.42 141.86 118.42 140.835C118.42 139.811 117.587 138.981 116.559 138.981C115.531 138.981 114.698 139.811 114.698 140.835C114.698 141.86 115.531 142.69 116.559 142.69Z" fill="#777777" fill-opacity="0.1"/>
<path d="M128.026 142.69C129.054 142.69 129.887 141.86 129.887 140.835C129.887 139.811 129.054 138.981 128.026 138.981C126.999 138.981 126.166 139.811 126.166 140.835C126.166 141.86 126.999 142.69 128.026 142.69Z" fill="#777777" fill-opacity="0.1"/>
<path d="M139.493 142.69C140.521 142.69 141.354 141.86 141.354 140.835C141.354 139.811 140.521 138.981 139.493 138.981C138.466 138.981 137.633 139.811 137.633 140.835C137.633 141.86 138.466 142.69 139.493 142.69Z" fill="#777777" fill-opacity="0.1"/>
<path d="M150.96 142.69C151.988 142.69 152.821 141.86 152.821 140.835C152.821 139.811 151.988 138.981 150.96 138.981C149.933 138.981 149.1 139.811 149.1 140.835C149.1 141.86 149.933 142.69 150.96 142.69Z" fill="#777777" fill-opacity="0.1"/>
<path d="M162.428 142.69C163.455 142.69 164.289 141.86 164.289 140.835C164.289 139.811 163.455 138.981 162.428 138.981C161.4 138.981 160.567 139.811 160.567 140.835C160.567 141.86 161.4 142.69 162.428 142.69Z" fill="#777777" fill-opacity="0.1"/>
<path d="M173.895 142.69C174.923 142.69 175.756 141.86 175.756 140.835C175.756 139.811 174.923 138.981 173.895 138.981C172.867 138.981 172.034 139.811 172.034 140.835C172.034 141.86 172.867 142.69 173.895 142.69Z" fill="#777777" fill-opacity="0.1"/>
<path d="M185.362 142.69C186.39 142.69 187.223 141.86 187.223 140.835C187.223 139.811 186.39 138.981 185.362 138.981C184.334 138.981 183.501 139.811 183.501 140.835C183.501 141.86 184.334 142.69 185.362 142.69Z" fill="#777777" fill-opacity="0.1"/>
<path d="M196.829 142.69C197.857 142.69 198.69 141.86 198.69 140.835C198.69 139.811 197.857 138.981 196.829 138.981C195.801 138.981 194.968 139.811 194.968 140.835C194.968 141.86 195.801 142.69 196.829 142.69Z" fill="#777777" fill-opacity="0.1"/>
<path d="M208.296 142.69C209.324 142.69 210.157 141.86 210.157 140.835C210.157 139.811 209.324 138.981 208.296 138.981C207.268 138.981 206.435 139.811 206.435 140.835C206.435 141.86 207.268 142.69 208.296 142.69Z" fill="#777777" fill-opacity="0.1"/>
<path d="M219.763 142.69C220.791 142.69 221.624 141.86 221.624 140.835C221.624 139.811 220.791 138.981 219.763 138.981C218.735 138.981 217.902 139.811 217.902 140.835C217.902 141.86 218.735 142.69 219.763 142.69Z" fill="#777777" fill-opacity="0.1"/>
<path d="M1.88796 156.588C2.91568 156.588 3.74882 155.758 3.74882 154.734C3.74882 153.709 2.91568 152.879 1.88796 152.879C0.860235 152.879 0.0270996 153.709 0.0270996 154.734C0.0270996 155.758 0.860235 156.588 1.88796 156.588Z" fill="#777777" fill-opacity="0.1"/>
<path d="M13.355 156.588C14.3827 156.588 15.2159 155.758 15.2159 154.734C15.2159 153.709 14.3827 152.879 13.355 152.879C12.3273 152.879 11.4941 153.709 11.4941 154.734C11.4941 155.758 12.3273 156.588 13.355 156.588Z" fill="#777777" fill-opacity="0.1"/>
<path d="M24.8223 156.588C25.85 156.588 26.6831 155.758 26.6831 154.734C26.6831 153.709 25.85 152.879 24.8223 152.879C23.7946 152.879 22.9614 153.709 22.9614 154.734C22.9614 155.758 23.7946 156.588 24.8223 156.588Z" fill="#777777" fill-opacity="0.1"/>
<path d="M36.2893 156.588C37.317 156.588 38.1502 155.758 38.1502 154.734C38.1502 153.709 37.317 152.879 36.2893 152.879C35.2616 152.879 34.4285 153.709 34.4285 154.734C34.4285 155.758 35.2616 156.588 36.2893 156.588Z" fill="#777777" fill-opacity="0.1"/>
<path d="M47.7564 156.588C48.7841 156.588 49.6172 155.758 49.6172 154.734C49.6172 153.709 48.7841 152.879 47.7564 152.879C46.7286 152.879 45.8955 153.709 45.8955 154.734C45.8955 155.758 46.7286 156.588 47.7564 156.588Z" fill="#777777" fill-opacity="0.1"/>
<path d="M59.2237 156.588C60.2514 156.588 61.0845 155.758 61.0845 154.734C61.0845 153.709 60.2514 152.879 59.2237 152.879C58.1959 152.879 57.3628 153.709 57.3628 154.734C57.3628 155.758 58.1959 156.588 59.2237 156.588Z" fill="#777777" fill-opacity="0.1"/>
<path d="M70.6907 156.588C71.7184 156.588 72.5516 155.758 72.5516 154.734C72.5516 153.709 71.7184 152.879 70.6907 152.879C69.663 152.879 68.8298 153.709 68.8298 154.734C68.8298 155.758 69.663 156.588 70.6907 156.588Z" fill="#777777" fill-opacity="0.1"/>
<path d="M82.1577 156.588C83.1855 156.588 84.0186 155.758 84.0186 154.734C84.0186 153.709 83.1855 152.879 82.1577 152.879C81.13 152.879 80.2969 153.709 80.2969 154.734C80.2969 155.758 81.13 156.588 82.1577 156.588Z" fill="#777777" fill-opacity="0.1"/>
<path d="M93.625 156.588C94.6527 156.588 95.4859 155.758 95.4859 154.734C95.4859 153.709 94.6527 152.879 93.625 152.879C92.5973 152.879 91.7642 153.709 91.7642 154.734C91.7642 155.758 92.5973 156.588 93.625 156.588Z" fill="#777777" fill-opacity="0.1"/>
<path d="M105.092 156.588C106.12 156.588 106.953 155.758 106.953 154.734C106.953 153.709 106.12 152.879 105.092 152.879C104.064 152.879 103.231 153.709 103.231 154.734C103.231 155.758 104.064 156.588 105.092 156.588Z" fill="#777777" fill-opacity="0.1"/>
<path d="M116.559 156.588C117.587 156.588 118.42 155.758 118.42 154.734C118.42 153.709 117.587 152.879 116.559 152.879C115.531 152.879 114.698 153.709 114.698 154.734C114.698 155.758 115.531 156.588 116.559 156.588Z" fill="#777777" fill-opacity="0.1"/>
<path d="M128.026 156.588C129.054 156.588 129.887 155.758 129.887 154.734C129.887 153.709 129.054 152.879 128.026 152.879C126.999 152.879 126.166 153.709 126.166 154.734C126.166 155.758 126.999 156.588 128.026 156.588Z" fill="#777777" fill-opacity="0.1"/>
<path d="M139.493 156.588C140.521 156.588 141.354 155.758 141.354 154.734C141.354 153.709 140.521 152.879 139.493 152.879C138.466 152.879 137.633 153.709 137.633 154.734C137.633 155.758 138.466 156.588 139.493 156.588Z" fill="#777777" fill-opacity="0.1"/>
<path d="M150.96 156.588C151.988 156.588 152.821 155.758 152.821 154.734C152.821 153.709 151.988 152.879 150.96 152.879C149.933 152.879 149.1 153.709 149.1 154.734C149.1 155.758 149.933 156.588 150.96 156.588Z" fill="#777777" fill-opacity="0.1"/>
<path d="M162.428 156.588C163.455 156.588 164.289 155.758 164.289 154.734C164.289 153.709 163.455 152.879 162.428 152.879C161.4 152.879 160.567 153.709 160.567 154.734C160.567 155.758 161.4 156.588 162.428 156.588Z" fill="#777777" fill-opacity="0.1"/>
<path d="M173.895 156.588C174.923 156.588 175.756 155.758 175.756 154.734C175.756 153.709 174.923 152.879 173.895 152.879C172.867 152.879 172.034 153.709 172.034 154.734C172.034 155.758 172.867 156.588 173.895 156.588Z" fill="#777777" fill-opacity="0.1"/>
<path d="M185.362 156.588C186.39 156.588 187.223 155.758 187.223 154.734C187.223 153.709 186.39 152.879 185.362 152.879C184.334 152.879 183.501 153.709 183.501 154.734C183.501 155.758 184.334 156.588 185.362 156.588Z" fill="#777777" fill-opacity="0.1"/>
<path d="M196.829 156.588C197.857 156.588 198.69 155.758 198.69 154.734C198.69 153.709 197.857 152.879 196.829 152.879C195.801 152.879 194.968 153.709 194.968 154.734C194.968 155.758 195.801 156.588 196.829 156.588Z" fill="#777777" fill-opacity="0.1"/>
<path d="M208.296 156.588C209.324 156.588 210.157 155.758 210.157 154.734C210.157 153.709 209.324 152.879 208.296 152.879C207.268 152.879 206.435 153.709 206.435 154.734C206.435 155.758 207.268 156.588 208.296 156.588Z" fill="#777777" fill-opacity="0.1"/>
<path d="M219.763 156.588C220.791 156.588 221.624 155.758 221.624 154.734C221.624 153.709 220.791 152.879 219.763 152.879C218.735 152.879 217.902 153.709 217.902 154.734C217.902 155.758 218.735 156.588 219.763 156.588Z" fill="#777777" fill-opacity="0.1"/>
<path d="M1.88796 170.486C2.91568 170.486 3.74882 169.656 3.74882 168.632C3.74882 167.607 2.91568 166.777 1.88796 166.777C0.860235 166.777 0.0270996 167.607 0.0270996 168.632C0.0270996 169.656 0.860235 170.486 1.88796 170.486Z" fill="#777777" fill-opacity="0.1"/>
<path d="M13.355 170.486C14.3827 170.486 15.2159 169.656 15.2159 168.632C15.2159 167.607 14.3827 166.777 13.355 166.777C12.3273 166.777 11.4941 167.607 11.4941 168.632C11.4941 169.656 12.3273 170.486 13.355 170.486Z" fill="#777777" fill-opacity="0.1"/>
<path d="M24.8223 170.486C25.85 170.486 26.6831 169.656 26.6831 168.632C26.6831 167.607 25.85 166.777 24.8223 166.777C23.7946 166.777 22.9614 167.607 22.9614 168.632C22.9614 169.656 23.7946 170.486 24.8223 170.486Z" fill="#777777" fill-opacity="0.1"/>
<path d="M36.2893 170.486C37.317 170.486 38.1502 169.656 38.1502 168.632C38.1502 167.607 37.317 166.777 36.2893 166.777C35.2616 166.777 34.4285 167.607 34.4285 168.632C34.4285 169.656 35.2616 170.486 36.2893 170.486Z" fill="#777777" fill-opacity="0.1"/>
<path d="M47.7564 170.486C48.7841 170.486 49.6172 169.656 49.6172 168.632C49.6172 167.607 48.7841 166.777 47.7564 166.777C46.7286 166.777 45.8955 167.607 45.8955 168.632C45.8955 169.656 46.7286 170.486 47.7564 170.486Z" fill="#777777" fill-opacity="0.1"/>
<path d="M59.2237 170.486C60.2514 170.486 61.0845 169.656 61.0845 168.632C61.0845 167.607 60.2514 166.777 59.2237 166.777C58.1959 166.777 57.3628 167.607 57.3628 168.632C57.3628 169.656 58.1959 170.486 59.2237 170.486Z" fill="#777777" fill-opacity="0.1"/>
<path d="M70.6907 170.486C71.7184 170.486 72.5516 169.656 72.5516 168.632C72.5516 167.607 71.7184 166.777 70.6907 166.777C69.663 166.777 68.8298 167.607 68.8298 168.632C68.8298 169.656 69.663 170.486 70.6907 170.486Z" fill="#777777" fill-opacity="0.1"/>
<path d="M82.1577 170.486C83.1855 170.486 84.0186 169.656 84.0186 168.632C84.0186 167.607 83.1855 166.777 82.1577 166.777C81.13 166.777 80.2969 167.607 80.2969 168.632C80.2969 169.656 81.13 170.486 82.1577 170.486Z" fill="#777777" fill-opacity="0.1"/>
<path d="M93.625 170.486C94.6527 170.486 95.4859 169.656 95.4859 168.632C95.4859 167.607 94.6527 166.777 93.625 166.777C92.5973 166.777 91.7642 167.607 91.7642 168.632C91.7642 169.656 92.5973 170.486 93.625 170.486Z" fill="#777777" fill-opacity="0.1"/>
<path d="M105.092 170.486C106.12 170.486 106.953 169.656 106.953 168.632C106.953 167.607 106.12 166.777 105.092 166.777C104.064 166.777 103.231 167.607 103.231 168.632C103.231 169.656 104.064 170.486 105.092 170.486Z" fill="#777777" fill-opacity="0.1"/>
<path d="M116.559 170.486C117.587 170.486 118.42 169.656 118.42 168.632C118.42 167.607 117.587 166.777 116.559 166.777C115.531 166.777 114.698 167.607 114.698 168.632C114.698 169.656 115.531 170.486 116.559 170.486Z" fill="#777777" fill-opacity="0.1"/>
<path d="M128.026 170.486C129.054 170.486 129.887 169.656 129.887 168.632C129.887 167.607 129.054 166.777 128.026 166.777C126.999 166.777 126.166 167.607 126.166 168.632C126.166 169.656 126.999 170.486 128.026 170.486Z" fill="#777777" fill-opacity="0.1"/>
<path d="M139.493 170.486C140.521 170.486 141.354 169.656 141.354 168.632C141.354 167.607 140.521 166.777 139.493 166.777C138.466 166.777 137.633 167.607 137.633 168.632C137.633 169.656 138.466 170.486 139.493 170.486Z" fill="#777777" fill-opacity="0.1"/>
<path d="M150.96 170.486C151.988 170.486 152.821 169.656 152.821 168.632C152.821 167.607 151.988 166.777 150.96 166.777C149.933 166.777 149.1 167.607 149.1 168.632C149.1 169.656 149.933 170.486 150.96 170.486Z" fill="#777777" fill-opacity="0.1"/>
<path d="M162.428 170.486C163.455 170.486 164.289 169.656 164.289 168.632C164.289 167.607 163.455 166.777 162.428 166.777C161.4 166.777 160.567 167.607 160.567 168.632C160.567 169.656 161.4 170.486 162.428 170.486Z" fill="#777777" fill-opacity="0.1"/>
<path d="M173.895 170.486C174.923 170.486 175.756 169.656 175.756 168.632C175.756 167.607 174.923 166.777 173.895 166.777C172.867 166.777 172.034 167.607 172.034 168.632C172.034 169.656 172.867 170.486 173.895 170.486Z" fill="#777777" fill-opacity="0.1"/>
<path d="M185.362 170.486C186.39 170.486 187.223 169.656 187.223 168.632C187.223 167.607 186.39 166.777 185.362 166.777C184.334 166.777 183.501 167.607 183.501 168.632C183.501 169.656 184.334 170.486 185.362 170.486Z" fill="#777777" fill-opacity="0.1"/>
<path d="M196.829 170.486C197.857 170.486 198.69 169.656 198.69 168.632C198.69 167.607 197.857 166.777 196.829 166.777C195.801 166.777 194.968 167.607 194.968 168.632C194.968 169.656 195.801 170.486 196.829 170.486Z" fill="#777777" fill-opacity="0.1"/>
<path d="M208.296 170.486C209.324 170.486 210.157 169.656 210.157 168.632C210.157 167.607 209.324 166.777 208.296 166.777C207.268 166.777 206.435 167.607 206.435 168.632C206.435 169.656 207.268 170.486 208.296 170.486Z" fill="#777777" fill-opacity="0.1"/>
<path d="M219.763 170.486C220.791 170.486 221.624 169.656 221.624 168.632C221.624 167.607 220.791 166.777 219.763 166.777C218.735 166.777 217.902 167.607 217.902 168.632C217.902 169.656 218.735 170.486 219.763 170.486Z" fill="#777777" fill-opacity="0.1"/>
<path d="M1.88796 184.384C2.91568 184.384 3.74882 183.554 3.74882 182.53C3.74882 181.506 2.91568 180.675 1.88796 180.675C0.860235 180.675 0.0270996 181.506 0.0270996 182.53C0.0270996 183.554 0.860235 184.384 1.88796 184.384Z" fill="#777777" fill-opacity="0.1"/>
<path d="M13.355 184.384C14.3827 184.384 15.2159 183.554 15.2159 182.53C15.2159 181.506 14.3827 180.675 13.355 180.675C12.3273 180.675 11.4941 181.506 11.4941 182.53C11.4941 183.554 12.3273 184.384 13.355 184.384Z" fill="#777777" fill-opacity="0.1"/>
<path d="M24.8223 184.384C25.85 184.384 26.6831 183.554 26.6831 182.53C26.6831 181.506 25.85 180.675 24.8223 180.675C23.7946 180.675 22.9614 181.506 22.9614 182.53C22.9614 183.554 23.7946 184.384 24.8223 184.384Z" fill="#777777" fill-opacity="0.1"/>
<path d="M36.2893 184.384C37.317 184.384 38.1502 183.554 38.1502 182.53C38.1502 181.506 37.317 180.675 36.2893 180.675C35.2616 180.675 34.4285 181.506 34.4285 182.53C34.4285 183.554 35.2616 184.384 36.2893 184.384Z" fill="#777777" fill-opacity="0.1"/>
<path d="M47.7564 184.384C48.7841 184.384 49.6172 183.554 49.6172 182.53C49.6172 181.506 48.7841 180.675 47.7564 180.675C46.7286 180.675 45.8955 181.506 45.8955 182.53C45.8955 183.554 46.7286 184.384 47.7564 184.384Z" fill="#777777" fill-opacity="0.1"/>
<path d="M59.2237 184.384C60.2514 184.384 61.0845 183.554 61.0845 182.53C61.0845 181.506 60.2514 180.675 59.2237 180.675C58.1959 180.675 57.3628 181.506 57.3628 182.53C57.3628 183.554 58.1959 184.384 59.2237 184.384Z" fill="#777777" fill-opacity="0.1"/>
<path d="M70.6907 184.384C71.7184 184.384 72.5516 183.554 72.5516 182.53C72.5516 181.506 71.7184 180.675 70.6907 180.675C69.663 180.675 68.8298 181.506 68.8298 182.53C68.8298 183.554 69.663 184.384 70.6907 184.384Z" fill="#777777" fill-opacity="0.1"/>
<path d="M82.1577 184.384C83.1855 184.384 84.0186 183.554 84.0186 182.53C84.0186 181.506 83.1855 180.675 82.1577 180.675C81.13 180.675 80.2969 181.506 80.2969 182.53C80.2969 183.554 81.13 184.384 82.1577 184.384Z" fill="#777777" fill-opacity="0.1"/>
<path d="M93.625 184.384C94.6527 184.384 95.4859 183.554 95.4859 182.53C95.4859 181.506 94.6527 180.675 93.625 180.675C92.5973 180.675 91.7642 181.506 91.7642 182.53C91.7642 183.554 92.5973 184.384 93.625 184.384Z" fill="#777777" fill-opacity="0.1"/>
<path d="M105.092 184.384C106.12 184.384 106.953 183.554 106.953 182.53C106.953 181.506 106.12 180.675 105.092 180.675C104.064 180.675 103.231 181.506 103.231 182.53C103.231 183.554 104.064 184.384 105.092 184.384Z" fill="#777777" fill-opacity="0.1"/>
<path d="M116.559 184.384C117.587 184.384 118.42 183.554 118.42 182.53C118.42 181.506 117.587 180.675 116.559 180.675C115.531 180.675 114.698 181.506 114.698 182.53C114.698 183.554 115.531 184.384 116.559 184.384Z" fill="#777777" fill-opacity="0.1"/>
<path d="M128.026 184.384C129.054 184.384 129.887 183.554 129.887 182.53C129.887 181.506 129.054 180.675 128.026 180.675C126.999 180.675 126.166 181.506 126.166 182.53C126.166 183.554 126.999 184.384 128.026 184.384Z" fill="#777777" fill-opacity="0.1"/>
<path d="M139.493 184.384C140.521 184.384 141.354 183.554 141.354 182.53C141.354 181.506 140.521 180.675 139.493 180.675C138.466 180.675 137.633 181.506 137.633 182.53C137.633 183.554 138.466 184.384 139.493 184.384Z" fill="#777777" fill-opacity="0.1"/>
<path d="M150.96 184.384C151.988 184.384 152.821 183.554 152.821 182.53C152.821 181.506 151.988 180.675 150.96 180.675C149.933 180.675 149.1 181.506 149.1 182.53C149.1 183.554 149.933 184.384 150.96 184.384Z" fill="#777777" fill-opacity="0.1"/>
<path d="M162.428 184.384C163.455 184.384 164.289 183.554 164.289 182.53C164.289 181.506 163.455 180.675 162.428 180.675C161.4 180.675 160.567 181.506 160.567 182.53C160.567 183.554 161.4 184.384 162.428 184.384Z" fill="#777777" fill-opacity="0.1"/>
<path d="M173.895 184.384C174.923 184.384 175.756 183.554 175.756 182.53C175.756 181.506 174.923 180.675 173.895 180.675C172.867 180.675 172.034 181.506 172.034 182.53C172.034 183.554 172.867 184.384 173.895 184.384Z" fill="#777777" fill-opacity="0.1"/>
<path d="M185.362 184.384C186.39 184.384 187.223 183.554 187.223 182.53C187.223 181.506 186.39 180.675 185.362 180.675C184.334 180.675 183.501 181.506 183.501 182.53C183.501 183.554 184.334 184.384 185.362 184.384Z" fill="#777777" fill-opacity="0.1"/>
<path d="M196.829 184.384C197.857 184.384 198.69 183.554 198.69 182.53C198.69 181.506 197.857 180.675 196.829 180.675C195.801 180.675 194.968 181.506 194.968 182.53C194.968 183.554 195.801 184.384 196.829 184.384Z" fill="#777777" fill-opacity="0.1"/>
<path d="M208.296 184.384C209.324 184.384 210.157 183.554 210.157 182.53C210.157 181.506 209.324 180.675 208.296 180.675C207.268 180.675 206.435 181.506 206.435 182.53C206.435 183.554 207.268 184.384 208.296 184.384Z" fill="#777777" fill-opacity="0.1"/>
<path d="M219.763 184.384C220.791 184.384 221.624 183.554 221.624 182.53C221.624 181.506 220.791 180.675 219.763 180.675C218.735 180.675 217.902 181.506 217.902 182.53C217.902 183.554 218.735 184.384 219.763 184.384Z" fill="#777777" fill-opacity="0.1"/>
<path d="M1.88796 198.282C2.91568 198.282 3.74882 197.452 3.74882 196.428C3.74882 195.404 2.91568 194.573 1.88796 194.573C0.860235 194.573 0.0270996 195.404 0.0270996 196.428C0.0270996 197.452 0.860235 198.282 1.88796 198.282Z" fill="#777777" fill-opacity="0.1"/>
<path d="M13.355 198.282C14.3827 198.282 15.2159 197.452 15.2159 196.428C15.2159 195.404 14.3827 194.573 13.355 194.573C12.3273 194.573 11.4941 195.404 11.4941 196.428C11.4941 197.452 12.3273 198.282 13.355 198.282Z" fill="#777777" fill-opacity="0.1"/>
<path d="M24.8223 198.282C25.85 198.282 26.6831 197.452 26.6831 196.428C26.6831 195.404 25.85 194.573 24.8223 194.573C23.7946 194.573 22.9614 195.404 22.9614 196.428C22.9614 197.452 23.7946 198.282 24.8223 198.282Z" fill="#777777" fill-opacity="0.1"/>
<path d="M36.2893 198.282C37.317 198.282 38.1502 197.452 38.1502 196.428C38.1502 195.404 37.317 194.573 36.2893 194.573C35.2616 194.573 34.4285 195.404 34.4285 196.428C34.4285 197.452 35.2616 198.282 36.2893 198.282Z" fill="#777777" fill-opacity="0.1"/>
<path d="M47.7564 198.282C48.7841 198.282 49.6172 197.452 49.6172 196.428C49.6172 195.404 48.7841 194.573 47.7564 194.573C46.7286 194.573 45.8955 195.404 45.8955 196.428C45.8955 197.452 46.7286 198.282 47.7564 198.282Z" fill="#777777" fill-opacity="0.1"/>
<path d="M59.2237 198.282C60.2514 198.282 61.0845 197.452 61.0845 196.428C61.0845 195.404 60.2514 194.573 59.2237 194.573C58.1959 194.573 57.3628 195.404 57.3628 196.428C57.3628 197.452 58.1959 198.282 59.2237 198.282Z" fill="#777777" fill-opacity="0.1"/>
<path d="M70.6907 198.282C71.7184 198.282 72.5516 197.452 72.5516 196.428C72.5516 195.404 71.7184 194.573 70.6907 194.573C69.663 194.573 68.8298 195.404 68.8298 196.428C68.8298 197.452 69.663 198.282 70.6907 198.282Z" fill="#777777" fill-opacity="0.1"/>
<path d="M82.1577 198.282C83.1855 198.282 84.0186 197.452 84.0186 196.428C84.0186 195.404 83.1855 194.573 82.1577 194.573C81.13 194.573 80.2969 195.404 80.2969 196.428C80.2969 197.452 81.13 198.282 82.1577 198.282Z" fill="#777777" fill-opacity="0.1"/>
<path d="M93.625 198.282C94.6527 198.282 95.4859 197.452 95.4859 196.428C95.4859 195.404 94.6527 194.573 93.625 194.573C92.5973 194.573 91.7642 195.404 91.7642 196.428C91.7642 197.452 92.5973 198.282 93.625 198.282Z" fill="#777777" fill-opacity="0.1"/>
<path d="M105.092 198.282C106.12 198.282 106.953 197.452 106.953 196.428C106.953 195.404 106.12 194.573 105.092 194.573C104.064 194.573 103.231 195.404 103.231 196.428C103.231 197.452 104.064 198.282 105.092 198.282Z" fill="#777777" fill-opacity="0.1"/>
<path d="M116.559 198.282C117.587 198.282 118.42 197.452 118.42 196.428C118.42 195.404 117.587 194.573 116.559 194.573C115.531 194.573 114.698 195.404 114.698 196.428C114.698 197.452 115.531 198.282 116.559 198.282Z" fill="#777777" fill-opacity="0.1"/>
<path d="M128.026 198.282C129.054 198.282 129.887 197.452 129.887 196.428C129.887 195.404 129.054 194.573 128.026 194.573C126.999 194.573 126.166 195.404 126.166 196.428C126.166 197.452 126.999 198.282 128.026 198.282Z" fill="#777777" fill-opacity="0.1"/>
<path d="M139.493 198.282C140.521 198.282 141.354 197.452 141.354 196.428C141.354 195.404 140.521 194.573 139.493 194.573C138.466 194.573 137.633 195.404 137.633 196.428C137.633 197.452 138.466 198.282 139.493 198.282Z" fill="#777777" fill-opacity="0.1"/>
<path d="M150.96 198.282C151.988 198.282 152.821 197.452 152.821 196.428C152.821 195.404 151.988 194.573 150.96 194.573C149.933 194.573 149.1 195.404 149.1 196.428C149.1 197.452 149.933 198.282 150.96 198.282Z" fill="#777777" fill-opacity="0.1"/>
<path d="M162.428 198.282C163.455 198.282 164.289 197.452 164.289 196.428C164.289 195.404 163.455 194.573 162.428 194.573C161.4 194.573 160.567 195.404 160.567 196.428C160.567 197.452 161.4 198.282 162.428 198.282Z" fill="#777777" fill-opacity="0.1"/>
<path d="M173.895 198.282C174.923 198.282 175.756 197.452 175.756 196.428C175.756 195.404 174.923 194.573 173.895 194.573C172.867 194.573 172.034 195.404 172.034 196.428C172.034 197.452 172.867 198.282 173.895 198.282Z" fill="#777777" fill-opacity="0.1"/>
<path d="M185.362 198.282C186.39 198.282 187.223 197.452 187.223 196.428C187.223 195.404 186.39 194.573 185.362 194.573C184.334 194.573 183.501 195.404 183.501 196.428C183.501 197.452 184.334 198.282 185.362 198.282Z" fill="#777777" fill-opacity="0.1"/>
<path d="M196.829 198.282C197.857 198.282 198.69 197.452 198.69 196.428C198.69 195.404 197.857 194.573 196.829 194.573C195.801 194.573 194.968 195.404 194.968 196.428C194.968 197.452 195.801 198.282 196.829 198.282Z" fill="#777777" fill-opacity="0.1"/>
<path d="M208.296 198.282C209.324 198.282 210.157 197.452 210.157 196.428C210.157 195.404 209.324 194.573 208.296 194.573C207.268 194.573 206.435 195.404 206.435 196.428C206.435 197.452 207.268 198.282 208.296 198.282Z" fill="#777777" fill-opacity="0.1"/>
<path d="M219.763 198.282C220.791 198.282 221.624 197.452 221.624 196.428C221.624 195.404 220.791 194.573 219.763 194.573C218.735 194.573 217.902 195.404 217.902 196.428C217.902 197.452 218.735 198.282 219.763 198.282Z" fill="#777777" fill-opacity="0.1"/>
<path d="M1.88796 212.18C2.91568 212.18 3.74882 211.35 3.74882 210.326C3.74882 209.302 2.91568 208.472 1.88796 208.472C0.860235 208.472 0.0270996 209.302 0.0270996 210.326C0.0270996 211.35 0.860235 212.18 1.88796 212.18Z" fill="#777777" fill-opacity="0.1"/>
<path d="M13.355 212.18C14.3827 212.18 15.2159 211.35 15.2159 210.326C15.2159 209.302 14.3827 208.472 13.355 208.472C12.3273 208.472 11.4941 209.302 11.4941 210.326C11.4941 211.35 12.3273 212.18 13.355 212.18Z" fill="#777777" fill-opacity="0.1"/>
<path d="M24.8223 212.18C25.85 212.18 26.6831 211.35 26.6831 210.326C26.6831 209.302 25.85 208.472 24.8223 208.472C23.7946 208.472 22.9614 209.302 22.9614 210.326C22.9614 211.35 23.7946 212.18 24.8223 212.18Z" fill="#777777" fill-opacity="0.1"/>
<path d="M36.2893 212.18C37.317 212.18 38.1502 211.35 38.1502 210.326C38.1502 209.302 37.317 208.472 36.2893 208.472C35.2616 208.472 34.4285 209.302 34.4285 210.326C34.4285 211.35 35.2616 212.18 36.2893 212.18Z" fill="#777777" fill-opacity="0.1"/>
<path d="M47.7564 212.18C48.7841 212.18 49.6172 211.35 49.6172 210.326C49.6172 209.302 48.7841 208.472 47.7564 208.472C46.7286 208.472 45.8955 209.302 45.8955 210.326C45.8955 211.35 46.7286 212.18 47.7564 212.18Z" fill="#777777" fill-opacity="0.1"/>
<path d="M59.2237 212.18C60.2514 212.18 61.0845 211.35 61.0845 210.326C61.0845 209.302 60.2514 208.472 59.2237 208.472C58.1959 208.472 57.3628 209.302 57.3628 210.326C57.3628 211.35 58.1959 212.18 59.2237 212.18Z" fill="#777777" fill-opacity="0.1"/>
<path d="M70.6907 212.18C71.7184 212.18 72.5516 211.35 72.5516 210.326C72.5516 209.302 71.7184 208.472 70.6907 208.472C69.663 208.472 68.8298 209.302 68.8298 210.326C68.8298 211.35 69.663 212.18 70.6907 212.18Z" fill="#777777" fill-opacity="0.1"/>
<path d="M82.1577 212.18C83.1855 212.18 84.0186 211.35 84.0186 210.326C84.0186 209.302 83.1855 208.472 82.1577 208.472C81.13 208.472 80.2969 209.302 80.2969 210.326C80.2969 211.35 81.13 212.18 82.1577 212.18Z" fill="#777777" fill-opacity="0.1"/>
<path d="M93.625 212.18C94.6527 212.18 95.4859 211.35 95.4859 210.326C95.4859 209.302 94.6527 208.472 93.625 208.472C92.5973 208.472 91.7642 209.302 91.7642 210.326C91.7642 211.35 92.5973 212.18 93.625 212.18Z" fill="#777777" fill-opacity="0.1"/>
<path d="M105.092 212.18C106.12 212.18 106.953 211.35 106.953 210.326C106.953 209.302 106.12 208.472 105.092 208.472C104.064 208.472 103.231 209.302 103.231 210.326C103.231 211.35 104.064 212.18 105.092 212.18Z" fill="#777777" fill-opacity="0.1"/>
<path d="M116.559 212.18C117.587 212.18 118.42 211.35 118.42 210.326C118.42 209.302 117.587 208.472 116.559 208.472C115.531 208.472 114.698 209.302 114.698 210.326C114.698 211.35 115.531 212.18 116.559 212.18Z" fill="#777777" fill-opacity="0.1"/>
<path d="M128.026 212.18C129.054 212.18 129.887 211.35 129.887 210.326C129.887 209.302 129.054 208.472 128.026 208.472C126.999 208.472 126.166 209.302 126.166 210.326C126.166 211.35 126.999 212.18 128.026 212.18Z" fill="#777777" fill-opacity="0.1"/>
<path d="M139.493 212.18C140.521 212.18 141.354 211.35 141.354 210.326C141.354 209.302 140.521 208.472 139.493 208.472C138.466 208.472 137.633 209.302 137.633 210.326C137.633 211.35 138.466 212.18 139.493 212.18Z" fill="#777777" fill-opacity="0.1"/>
<path d="M150.96 212.18C151.988 212.18 152.821 211.35 152.821 210.326C152.821 209.302 151.988 208.472 150.96 208.472C149.933 208.472 149.1 209.302 149.1 210.326C149.1 211.35 149.933 212.18 150.96 212.18Z" fill="#777777" fill-opacity="0.1"/>
<path d="M162.428 212.18C163.455 212.18 164.289 211.35 164.289 210.326C164.289 209.302 163.455 208.472 162.428 208.472C161.4 208.472 160.567 209.302 160.567 210.326C160.567 211.35 161.4 212.18 162.428 212.18Z" fill="#777777" fill-opacity="0.1"/>
<path d="M173.895 212.18C174.923 212.18 175.756 211.35 175.756 210.326C175.756 209.302 174.923 208.472 173.895 208.472C172.867 208.472 172.034 209.302 172.034 210.326C172.034 211.35 172.867 212.18 173.895 212.18Z" fill="#777777" fill-opacity="0.1"/>
<path d="M185.362 212.18C186.39 212.18 187.223 211.35 187.223 210.326C187.223 209.302 186.39 208.472 185.362 208.472C184.334 208.472 183.501 209.302 183.501 210.326C183.501 211.35 184.334 212.18 185.362 212.18Z" fill="#777777" fill-opacity="0.1"/>
<path d="M196.829 212.18C197.857 212.18 198.69 211.35 198.69 210.326C198.69 209.302 197.857 208.472 196.829 208.472C195.801 208.472 194.968 209.302 194.968 210.326C194.968 211.35 195.801 212.18 196.829 212.18Z" fill="#777777" fill-opacity="0.1"/>
<path d="M208.296 212.18C209.324 212.18 210.157 211.35 210.157 210.326C210.157 209.302 209.324 208.472 208.296 208.472C207.268 208.472 206.435 209.302 206.435 210.326C206.435 211.35 207.268 212.18 208.296 212.18Z" fill="#777777" fill-opacity="0.1"/>
<path d="M219.763 212.18C220.791 212.18 221.624 211.35 221.624 210.326C221.624 209.302 220.791 208.472 219.763 208.472C218.735 208.472 217.902 209.302 217.902 210.326C217.902 211.35 218.735 212.18 219.763 212.18Z" fill="#777777" fill-opacity="0.1"/>
<path d="M1.88796 226.079C2.91568 226.079 3.74882 225.248 3.74882 224.224C3.74882 223.2 2.91568 222.37 1.88796 222.37C0.860235 222.37 0.0270996 223.2 0.0270996 224.224C0.0270996 225.248 0.860235 226.079 1.88796 226.079Z" fill="#777777" fill-opacity="0.1"/>
<path d="M13.355 226.079C14.3827 226.079 15.2159 225.248 15.2159 224.224C15.2159 223.2 14.3827 222.37 13.355 222.37C12.3273 222.37 11.4941 223.2 11.4941 224.224C11.4941 225.248 12.3273 226.079 13.355 226.079Z" fill="#777777" fill-opacity="0.1"/>
<path d="M24.8223 226.079C25.85 226.079 26.6831 225.248 26.6831 224.224C26.6831 223.2 25.85 222.37 24.8223 222.37C23.7946 222.37 22.9614 223.2 22.9614 224.224C22.9614 225.248 23.7946 226.079 24.8223 226.079Z" fill="#777777" fill-opacity="0.1"/>
<path d="M36.2893 226.079C37.317 226.079 38.1502 225.248 38.1502 224.224C38.1502 223.2 37.317 222.37 36.2893 222.37C35.2616 222.37 34.4285 223.2 34.4285 224.224C34.4285 225.248 35.2616 226.079 36.2893 226.079Z" fill="#777777" fill-opacity="0.1"/>
<path d="M47.7564 226.079C48.7841 226.079 49.6172 225.248 49.6172 224.224C49.6172 223.2 48.7841 222.37 47.7564 222.37C46.7286 222.37 45.8955 223.2 45.8955 224.224C45.8955 225.248 46.7286 226.079 47.7564 226.079Z" fill="#777777" fill-opacity="0.1"/>
<path d="M59.2237 226.079C60.2514 226.079 61.0845 225.248 61.0845 224.224C61.0845 223.2 60.2514 222.37 59.2237 222.37C58.1959 222.37 57.3628 223.2 57.3628 224.224C57.3628 225.248 58.1959 226.079 59.2237 226.079Z" fill="#777777" fill-opacity="0.1"/>
<path d="M70.6907 226.079C71.7184 226.079 72.5516 225.248 72.5516 224.224C72.5516 223.2 71.7184 222.37 70.6907 222.37C69.663 222.37 68.8298 223.2 68.8298 224.224C68.8298 225.248 69.663 226.079 70.6907 226.079Z" fill="#777777" fill-opacity="0.1"/>
<path d="M82.1577 226.079C83.1855 226.079 84.0186 225.248 84.0186 224.224C84.0186 223.2 83.1855 222.37 82.1577 222.37C81.13 222.37 80.2969 223.2 80.2969 224.224C80.2969 225.248 81.13 226.079 82.1577 226.079Z" fill="#777777" fill-opacity="0.1"/>
<path d="M93.625 226.079C94.6527 226.079 95.4859 225.248 95.4859 224.224C95.4859 223.2 94.6527 222.37 93.625 222.37C92.5973 222.37 91.7642 223.2 91.7642 224.224C91.7642 225.248 92.5973 226.079 93.625 226.079Z" fill="#777777" fill-opacity="0.1"/>
<path d="M105.092 226.079C106.12 226.079 106.953 225.248 106.953 224.224C106.953 223.2 106.12 222.37 105.092 222.37C104.064 222.37 103.231 223.2 103.231 224.224C103.231 225.248 104.064 226.079 105.092 226.079Z" fill="#777777" fill-opacity="0.1"/>
<path d="M116.559 226.079C117.587 226.079 118.42 225.248 118.42 224.224C118.42 223.2 117.587 222.37 116.559 222.37C115.531 222.37 114.698 223.2 114.698 224.224C114.698 225.248 115.531 226.079 116.559 226.079Z" fill="#777777" fill-opacity="0.1"/>
<path d="M128.026 226.079C129.054 226.079 129.887 225.248 129.887 224.224C129.887 223.2 129.054 222.37 128.026 222.37C126.999 222.37 126.166 223.2 126.166 224.224C126.166 225.248 126.999 226.079 128.026 226.079Z" fill="#777777" fill-opacity="0.1"/>
<path d="M139.493 226.079C140.521 226.079 141.354 225.248 141.354 224.224C141.354 223.2 140.521 222.37 139.493 222.37C138.466 222.37 137.633 223.2 137.633 224.224C137.633 225.248 138.466 226.079 139.493 226.079Z" fill="#777777" fill-opacity="0.1"/>
<path d="M150.96 226.079C151.988 226.079 152.821 225.248 152.821 224.224C152.821 223.2 151.988 222.37 150.96 222.37C149.933 222.37 149.1 223.2 149.1 224.224C149.1 225.248 149.933 226.079 150.96 226.079Z" fill="#777777" fill-opacity="0.1"/>
<path d="M162.428 226.079C163.455 226.079 164.289 225.248 164.289 224.224C164.289 223.2 163.455 222.37 162.428 222.37C161.4 222.37 160.567 223.2 160.567 224.224C160.567 225.248 161.4 226.079 162.428 226.079Z" fill="#777777" fill-opacity="0.1"/>
<path d="M173.895 226.079C174.923 226.079 175.756 225.248 175.756 224.224C175.756 223.2 174.923 222.37 173.895 222.37C172.867 222.37 172.034 223.2 172.034 224.224C172.034 225.248 172.867 226.079 173.895 226.079Z" fill="#777777" fill-opacity="0.1"/>
<path d="M185.362 226.079C186.39 226.079 187.223 225.248 187.223 224.224C187.223 223.2 186.39 222.37 185.362 222.37C184.334 222.37 183.501 223.2 183.501 224.224C183.501 225.248 184.334 226.079 185.362 226.079Z" fill="#777777" fill-opacity="0.1"/>
<path d="M196.829 226.079C197.857 226.079 198.69 225.248 198.69 224.224C198.69 223.2 197.857 222.37 196.829 222.37C195.801 222.37 194.968 223.2 194.968 224.224C194.968 225.248 195.801 226.079 196.829 226.079Z" fill="#777777" fill-opacity="0.1"/>
<path d="M208.296 226.079C209.324 226.079 210.157 225.248 210.157 224.224C210.157 223.2 209.324 222.37 208.296 222.37C207.268 222.37 206.435 223.2 206.435 224.224C206.435 225.248 207.268 226.079 208.296 226.079Z" fill="#777777" fill-opacity="0.1"/>
<path d="M219.763 226.079C220.791 226.079 221.624 225.248 221.624 224.224C221.624 223.2 220.791 222.37 219.763 222.37C218.735 222.37 217.902 223.2 217.902 224.224C217.902 225.248 218.735 226.079 219.763 226.079Z" fill="#777777" fill-opacity="0.1"/>
</g>
<defs>
<clipPath id="clip0">
<rect width="222" height="232" fill="white"/>
</clipPath>
</defs>
</svg>
