<svg width="112" height="16" viewBox="0 0 112 16" fill="none" xmlns="http://www.w3.org/2000/svg">
<g clip-path="url(#clip0)">
<path d="M15.6522 7.28235C15.9672 6.97542 16.0783 6.52496 15.9425 6.10621C15.8063 5.68747 15.4517 5.38855 15.0159 5.32512L11.1419 4.7622C10.9769 4.73817 10.8343 4.63469 10.7606 4.48507L9.0286 0.974937C8.83412 0.580543 8.43941 0.335449 7.99952 0.335449C7.55995 0.335449 7.16524 0.580543 6.97077 0.974937L5.23845 4.48539C5.16476 4.63501 5.02187 4.73849 4.85687 4.76252L0.982781 5.32544C0.547379 5.38855 0.192393 5.68779 0.0562295 6.10653C-0.0796135 6.52528 0.0315599 6.97574 0.346498 7.28267L3.14954 10.0149C3.26904 10.1315 3.32383 10.2994 3.29564 10.4634L2.63436 14.3215C2.57573 14.6611 2.6648 14.9914 2.88458 15.2519C3.22611 15.6578 3.82235 15.7815 4.29908 15.531L7.76372 13.7093C7.90853 13.6333 8.09083 13.634 8.23532 13.7093L11.7003 15.531C11.8688 15.6197 12.0485 15.6646 12.234 15.6646C12.5727 15.6646 12.8937 15.514 13.1145 15.2519C13.3346 14.9914 13.4233 14.6605 13.3647 14.3215L12.7031 10.4634C12.6749 10.2991 12.7297 10.1315 12.8492 10.0149L15.6522 7.28235Z" fill="#F8DF01"/>
</g>
<g clip-path="url(#clip1)">
<path d="M39.6522 7.28235C39.9672 6.97542 40.0783 6.52496 39.9425 6.10621C39.8063 5.68747 39.4517 5.38855 39.0159 5.32512L35.1419 4.7622C34.9769 4.73817 34.8343 4.63469 34.7606 4.48507L33.0286 0.974937C32.8341 0.580543 32.4394 0.335449 31.9995 0.335449C31.56 0.335449 31.1652 0.580543 30.9708 0.974937L29.2384 4.48539C29.1648 4.63501 29.0219 4.73849 28.8569 4.76252L24.9828 5.32544C24.5474 5.38855 24.1924 5.68779 24.0562 6.10653C23.9204 6.52528 24.0316 6.97574 24.3465 7.28267L27.1495 10.0149C27.269 10.1315 27.3238 10.2994 27.2956 10.4634L26.6344 14.3215C26.5757 14.6611 26.6648 14.9914 26.8846 15.2519C27.2261 15.6578 27.8223 15.7815 28.2991 15.531L31.7637 13.7093C31.9085 13.6333 32.0908 13.634 32.2353 13.7093L35.7003 15.531C35.8688 15.6197 36.0485 15.6646 36.234 15.6646C36.5727 15.6646 36.8937 15.514 37.1145 15.2519C37.3346 14.9914 37.4233 14.6605 37.3647 14.3215L36.7031 10.4634C36.6749 10.2991 36.7297 10.1315 36.8492 10.0149L39.6522 7.28235Z" fill="#F8DF01"/>
</g>
<g clip-path="url(#clip2)">
<path d="M63.6522 7.28235C63.9672 6.97542 64.0783 6.52496 63.9425 6.10621C63.8063 5.68747 63.4517 5.38855 63.0159 5.32512L59.1419 4.7622C58.9769 4.73817 58.8343 4.63469 58.7606 4.48507L57.0286 0.974937C56.8341 0.580543 56.4394 0.335449 55.9995 0.335449C55.56 0.335449 55.1652 0.580543 54.9708 0.974937L53.2384 4.48539C53.1648 4.63501 53.0219 4.73849 52.8569 4.76252L48.9828 5.32544C48.5474 5.38855 48.1924 5.68779 48.0562 6.10653C47.9204 6.52528 48.0316 6.97574 48.3465 7.28267L51.1495 10.0149C51.269 10.1315 51.3238 10.2994 51.2956 10.4634L50.6344 14.3215C50.5757 14.6611 50.6648 14.9914 50.8846 15.2519C51.2261 15.6578 51.8223 15.7815 52.2991 15.531L55.7637 13.7093C55.9085 13.6333 56.0908 13.634 56.2353 13.7093L59.7003 15.531C59.8688 15.6197 60.0485 15.6646 60.234 15.6646C60.5727 15.6646 60.8937 15.514 61.1145 15.2519C61.3346 14.9914 61.4233 14.6605 61.3647 14.3215L60.7031 10.4634C60.6749 10.2991 60.7297 10.1315 60.8492 10.0149L63.6522 7.28235Z" fill="#F8DF01"/>
</g>
<g clip-path="url(#clip3)">
<path d="M87.6522 7.28235C87.9672 6.97542 88.0783 6.52496 87.9425 6.10621C87.8063 5.68747 87.4517 5.38855 87.0159 5.32512L83.1419 4.7622C82.9769 4.73817 82.8343 4.63469 82.7606 4.48507L81.0286 0.974937C80.8341 0.580543 80.4394 0.335449 79.9995 0.335449C79.56 0.335449 79.1652 0.580543 78.9708 0.974937L77.2384 4.48539C77.1648 4.63501 77.0219 4.73849 76.8569 4.76252L72.9828 5.32544C72.5474 5.38855 72.1924 5.68779 72.0562 6.10653C71.9204 6.52528 72.0316 6.97574 72.3465 7.28267L75.1495 10.0149C75.269 10.1315 75.3238 10.2994 75.2956 10.4634L74.6344 14.3215C74.5757 14.6611 74.6648 14.9914 74.8846 15.2519C75.2261 15.6578 75.8223 15.7815 76.2991 15.531L79.7637 13.7093C79.9085 13.6333 80.0908 13.634 80.2353 13.7093L83.7003 15.531C83.8688 15.6197 84.0485 15.6646 84.234 15.6646C84.5727 15.6646 84.8937 15.514 85.1145 15.2519C85.3346 14.9914 85.4233 14.6605 85.3647 14.3215L84.7031 10.4634C84.6749 10.2991 84.7297 10.1315 84.8492 10.0149L87.6522 7.28235Z" fill="#F8DF01"/>
</g>
<g clip-path="url(#clip4)">
<path d="M111.652 7.28235C111.967 6.97542 112.078 6.52496 111.942 6.10621C111.806 5.68747 111.452 5.38855 111.016 5.32512L107.142 4.7622C106.977 4.73817 106.834 4.63469 106.761 4.48507L105.029 0.974937C104.834 0.580543 104.439 0.335449 104 0.335449C103.56 0.335449 103.165 0.580543 102.971 0.974937L101.238 4.48539C101.165 4.63501 101.022 4.73849 100.857 4.76252L96.9828 5.32544C96.5474 5.38855 96.1924 5.68779 96.0562 6.10653C95.9204 6.52528 96.0316 6.97574 96.3465 7.28267L99.1495 10.0149C99.269 10.1315 99.3238 10.2994 99.2956 10.4634L98.6344 14.3215C98.5757 14.6611 98.6648 14.9914 98.8846 15.2519C99.2261 15.6578 99.8223 15.7815 100.299 15.531L103.764 13.7093C103.909 13.6333 104.091 13.634 104.235 13.7093L107.7 15.531C107.869 15.6197 108.049 15.6646 108.234 15.6646C108.573 15.6646 108.894 15.514 109.114 15.2519C109.335 14.9914 109.423 14.6605 109.365 14.3215L108.703 10.4634C108.675 10.2991 108.73 10.1315 108.849 10.0149L111.652 7.28235Z" fill="#F8DF01"/>
</g>
<defs>
<clipPath id="clip0">
<rect width="16" height="16" fill="white"/>
</clipPath>
<clipPath id="clip1">
<rect width="16" height="16" fill="white" transform="translate(24)"/>
</clipPath>
<clipPath id="clip2">
<rect width="16" height="16" fill="white" transform="translate(48)"/>
</clipPath>
<clipPath id="clip3">
<rect width="16" height="16" fill="white" transform="translate(72)"/>
</clipPath>
<clipPath id="clip4">
<rect width="16" height="16" fill="white" transform="translate(96)"/>
</clipPath>
</defs>
</svg>
