<svg width="24" height="24" viewBox="0 0 24 24" fill="none" xmlns="http://www.w3.org/2000/svg">
<g clip-path="url(#clip0)">
<path d="M18.2464 15.8776C17.4623 15.1035 16.4834 15.1035 15.7043 15.8776C15.11 16.4669 14.5157 17.0562 13.9314 17.6555C13.7716 17.8203 13.6367 17.8552 13.442 17.7454C13.0574 17.5356 12.6479 17.3658 12.2783 17.1361C10.5553 16.0524 9.11203 14.659 7.83352 13.0908C7.19926 12.3117 6.63492 11.4777 6.24038 10.5388C6.16047 10.349 6.17545 10.2242 6.33027 10.0693C6.92458 9.49501 7.5039 8.90569 8.08822 8.31638C8.90227 7.49734 8.90227 6.53846 8.08323 5.71442C7.61877 5.24496 7.15431 4.7855 6.68985 4.31605C6.21041 3.83661 5.73597 3.35217 5.25153 2.87773C4.46745 2.11362 3.48859 2.11362 2.7095 2.88272C2.1102 3.47203 1.53587 4.07633 0.926577 4.65565C0.362235 5.19003 0.0775671 5.84426 0.017637 6.60837C-0.0772523 7.85192 0.227392 9.02555 0.656891 10.1692C1.53587 12.5365 2.8743 14.639 4.49741 16.5668C6.68985 19.1737 9.3068 21.2363 12.3682 22.7246C13.7466 23.3938 15.175 23.9082 16.7281 23.9931C17.7969 24.053 18.7258 23.7833 19.4699 22.9493C19.9794 22.38 20.5537 21.8606 21.0931 21.3162C21.8921 20.5072 21.8971 19.5283 21.103 18.7292C20.1541 17.7753 19.2003 16.8265 18.2464 15.8776Z" fill="white"/>
<path d="M17.2926 11.8961L19.1354 11.5815C18.8458 9.88849 18.0467 8.35528 16.8331 7.1367C15.5496 5.8532 13.9265 5.04414 12.1386 4.79443L11.8789 6.64727C13.2623 6.84204 14.5208 7.46632 15.5147 8.46016C16.4536 9.39906 17.0679 10.5877 17.2926 11.8961Z" fill="white"/>
<path d="M20.1741 3.88547C18.0466 1.75795 15.3548 0.414516 12.3832 0L12.1235 1.85284C14.6905 2.21242 17.0178 3.37606 18.8557 5.20892C20.5986 6.95189 21.7423 9.15432 22.1568 11.5765L23.9997 11.2619C23.5152 8.45514 22.1918 5.90811 20.1741 3.88547Z" fill="white"/>
</g>
<defs>
<clipPath id="clip0">
<rect width="24" height="24" fill="white"/>
</clipPath>
</defs>
</svg>
